<?xml version="1.0" encoding="utf-8"?>
<!-- Generator: Adobe Illustrator 19.2.1, SVG Export Plug-In . SVG Version: 6.00 Build 0)  -->
<svg version="1.1" id="Слой_1" xmlns="http://www.w3.org/2000/svg" xmlns:xlink="http://www.w3.org/1999/xlink" x="0px" y="0px"
	 viewBox="0 0 48 48" style="enable-background:new 0 0 48 48;" xml:space="preserve">
<style type="text/css">
	.st0{fill:#0073A5;}
	.st1{fill:#FFFFFF;}
</style>
<g>
	<path class="st0" d="M48,37.4c0,0.9-0.7,1.6-1.6,1.6H1.6C0.7,39,0,38.3,0,37.4V10.6C0,9.7,0.7,9,1.6,9h44.8c0.9,0,1.6,0.7,1.6,1.6
		V37.4z"/>
	<g>
		<path class="st1" d="M14.9,23.3v-0.5l-0.2,0.5h-2l-0.2-0.5v0.5H8.7l-0.4-1H7.5l-0.5,1H5.1v-3.1L6.5,17h2.7l0.4,0.9V17h3.3l0.7,1.5
			l0.7-1.5h10.4c0,0,0.5,0,0.9,0.2l0-0.2h2.6v0.3c0,0,0.5-0.3,1.2-0.3c0.7,0,4.6,0,4.6,0l0.4,0.9V17h3l0.5,0.9V17h2.8v6.3H38
			l-0.7-1.1v1.1h-3.6l-0.5-1.1h-0.7L32,23.3h-2.2c0,0-0.8,0-1.4-0.4c0,0.2,0,0.4,0,0.4H24c0,0,0-1.3,0-1.5c0-0.2-0.2-0.2-0.2-0.2
			h-0.2v1.7H14.9z"/>
		<path class="st1" d="M12.7,24.7h5.7l0.8,0.9l0.8-0.9h4.4c0,0,0.4,0,0.8,0.2v-0.2c0,0,3.4,0,3.9,0c0.5,0,0.9,0.2,0.9,0.2v-0.2h5.1
			v0.2c0,0,0.4-0.2,0.8-0.2c0.5,0,3.3,0,3.3,0v0.2c0,0,0.4-0.2,0.9-0.2c0.4,0,2.6,0,2.6,0v6c0,0-0.3,0.4-1,0.4h-3.4v-0.2
			c0,0-0.3,0.2-0.8,0.2c-0.5,0-9.1,0-9.1,0s0-1.4,0-1.5c0-0.2-0.1-0.2-0.2-0.2h-0.1V31h-2.8v-1.7c0,0-0.3,0.2-0.8,0.2
			c-0.5,0-1,0-1,0V31H20l-0.8-1l-0.8,1h-5.7V24.7z"/>
		<polygon class="st0" points="30.8,25.6 34.4,25.6 34.4,26.6 31.9,26.6 31.9,27.4 34.4,27.4 34.4,28.3 31.9,28.3 31.9,29.2 
			34.4,29.2 34.4,30.1 30.8,30.1 		"/>
		<path class="st0" d="M41.4,27.4c1.4,0.1,1.5,0.7,1.5,1.5c0,0.8-0.7,1.3-1.4,1.3h-2.3v-1h1.8c0.3,0,0.8,0,0.8-0.4
			c0-0.2-0.1-0.3-0.4-0.4c-0.1,0-0.7-0.1-0.8-0.1c-1.2,0-1.5-0.6-1.5-1.4c0-0.8,0.6-1.3,1.3-1.3h2.3v1H41c-0.4,0-0.8,0-0.8,0.4
			c0,0.3,0.2,0.3,0.5,0.4C40.7,27.3,41.3,27.4,41.4,27.4z"/>
		<path class="st0" d="M37.2,27.4c1.4,0.1,1.5,0.7,1.5,1.5c0,0.8-0.7,1.3-1.4,1.3H35v-1h1.8c0.3,0,0.8,0,0.8-0.4
			c0-0.2-0.1-0.3-0.4-0.4c-0.1,0-0.7-0.1-0.8-0.1c-1.2,0-1.5-0.6-1.5-1.4c0-0.8,0.6-1.3,1.3-1.3h2.3v1h-1.7c-0.4,0-0.8,0-0.8,0.4
			c0,0.3,0.2,0.3,0.5,0.4C36.6,27.3,37.2,27.4,37.2,27.4z"/>
		<path class="st0" d="M24.2,25.6h-3.9L19,27l-1.2-1.4h-4.3v4.5h4.2l1.3-1.5l1.3,1.5h2.1v-1.5h1.5c0.6,0,1.6,0,1.6-1.6
			C25.5,25.9,24.7,25.6,24.2,25.6z M17.1,29.2h-2.5v-0.9H17v-0.9h-2.4v-0.8l2.7,0l1.1,1.2L17.1,29.2z M21.3,29.7l-1.6-1.9l1.6-1.8
			V29.7z M23.8,27.7h-1.4v-1.1h1.4c0.5,0,0.6,0.3,0.6,0.5C24.4,27.4,24.2,27.7,23.8,27.7z"/>
		<path class="st0" d="M29.5,28.1c0.6-0.3,0.8-0.7,0.8-1.2c0-1-0.8-1.2-1.3-1.2h-2.9v4.5h1.1v-1.6h1.4c0.4,0,0.5,0.4,0.5,0.8l0,0.8
			h1.1l0-0.9C30.2,28.5,30,28.1,29.5,28.1z M28.5,27.6h-1.4v-1h1.4c0.5,0,0.6,0.3,0.6,0.5C29.1,27.4,29,27.6,28.5,27.6z"/>
		<rect x="26.5" y="17.9" class="st0" width="1.1" height="4.5"/>
		<polygon class="st0" points="17.5,17.9 21.1,17.9 21.1,18.8 18.6,18.8 18.6,19.7 21,19.7 21,20.5 18.6,20.5 18.6,21.4 21.1,21.4 
			21.1,22.4 17.5,22.4 		"/>
		<path class="st0" d="M25.2,20.3c0.6-0.3,0.8-0.7,0.8-1.2c0-1-0.8-1.2-1.3-1.2h-2.9v4.5h1.1v-1.6h1.4c0.4,0,0.5,0.4,0.5,0.8l0,0.8
			h1.1l0-0.9C25.9,20.7,25.7,20.4,25.2,20.3z M24.2,19.9h-1.4v-1h1.4c0.5,0,0.6,0.3,0.6,0.5C24.8,19.7,24.7,19.9,24.2,19.9z"/>
		<path class="st0" d="M14.9,17.9l-1.4,3l-1.3-3h-1.7v4.3l-1.9-4.3H7.1l-2,4.5h1.2l0.4-1h2.2l0.4,1h2.2V19l1.5,3.3h1l1.5-3.3v3.3
			h1.1v-4.5H14.9z M7.2,20.4l0.7-1.6l0.7,1.6H7.2z"/>
		<path class="st0" d="M39,17.9V21l-1.9-3.1h-1.6v4.2l-1.9-4.2h-1.5l-1.5,3.5c0,0-0.6,0-0.7,0c-0.3-0.1-0.7-0.2-0.7-1V20
			c0-1.1,0.6-1.1,1.3-1.1h0.7v-1h-1.4c-0.5,0-1.6,0.4-1.6,2.2c0,1.2,0.5,2.3,1.7,2.3h1.5l0.4-1H34l0.4,1h2.2v-3.3l2,3.3h1.5v-4.5H39
			z M32.2,20.4l0.7-1.6l0.7,1.6H32.2z"/>
	</g>
</g>
</svg>
