<?xml version="1.0" encoding="utf-8"?>
<!-- Generator: Adobe Illustrator 19.2.1, SVG Export Plug-In . SVG Version: 6.00 Build 0)  -->
<svg version="1.1" id="Слой_1" xmlns="http://www.w3.org/2000/svg" xmlns:xlink="http://www.w3.org/1999/xlink" x="0px" y="0px"
	 viewBox="0 0 48 48" style="enable-background:new 0 0 48 48;" xml:space="preserve">
<style type="text/css">
	.st0{fill:#E95A0C;}
	.st1{fill:#FFFFFF;}
</style>
<g>
	<circle class="st0" cx="24" cy="24" r="24"/>
	<g>
		<path class="st1" d="M6.9,25.1l0.2-1.8c0,0,0.1-0.3,0.3,0l0.3,1.8c0,0,0,0.1,0,0.3l-0.3,1.7c0,0-0.1,0.3-0.3,0l-0.2-1.7
			C6.9,25.4,6.8,25.2,6.9,25.1z"/>
		<path class="st1" d="M8.1,25.1l0.3-2.8c0,0,0.1-0.5,0.3,0L9,25.1c0,0,0,0.2,0,0.4l-0.3,2.8c0,0-0.1,0.4-0.3,0l-0.3-2.8
			C8.1,25.5,8,25.2,8.1,25.1z"/>
		<path class="st1" d="M9.4,25l0.3-3.3c0,0,0.1-0.6,0.3-0.1l0.3,3.3c0,0,0,0.3,0,0.5L10,28.8c0,0-0.1,0.5-0.3,0l-0.3-3.3
			C9.4,25.5,9.4,25.1,9.4,25z"/>
		<path class="st1" d="M10.7,25l0.3-3.4c0,0,0.1-0.6,0.3-0.1l0.4,3.5c0,0,0,0.3,0,0.5l-0.4,3.4c0,0-0.1,0.5-0.3,0l-0.3-3.4
			C10.7,25.5,10.7,25.2,10.7,25z"/>
		<path class="st1" d="M12.1,25.2l0.3-3.4c0,0,0.2-0.6,0.4-0.1l0.4,3.4c0,0,0,0.3,0,0.5L12.8,29c0,0-0.1,0.5-0.4,0l-0.3-3.3
			C12.1,25.7,12.1,25.3,12.1,25.2z"/>
		<path class="st1" d="M13.5,25.1l0.3-5.5c0,0,0.2-0.4,0.5,0l0.3,5.5c0,0,0,0.3,0,0.4L14.2,29c0,0-0.3,0.5-0.5-0.1l-0.3-3.5
			C13.4,25.4,13.4,25.1,13.5,25.1z"/>
		<path class="st1" d="M15.1,28.9l-0.2-3.5c0,0,0-0.5,0-0.7l0.2-6.4c0,0,0.2-0.7,0.6-0.1l0.3,6.4c0,0,0,0.5,0,0.8l-0.3,3.4
			C15.6,28.9,15.4,29.5,15.1,28.9z"/>
		<path class="st1" d="M16.5,28.9l-0.2-3.4c0,0-0.1-0.6,0-0.7l0.2-7.1c0,0,0.3-0.6,0.6,0l0.2,7.1c0,0,0.1,0.5,0,0.7L17.1,29
			C17.1,29,16.8,29.4,16.5,28.9z"/>
		<path class="st1" d="M17.9,28.9l-0.2-3.4c0,0-0.1-0.5,0-0.7c0.1-0.2,0.2-7.4,0.2-7.4s0.4-0.6,0.6,0l0.3,7.4c0,0,0,0.6,0,0.7
			L18.5,29C18.5,29,18.2,29.4,17.9,28.9z"/>
		<path class="st1" d="M19.2,28.9L19,25.5c0,0-0.1-0.7,0-0.9l0.2-7c0,0,0.3-0.6,0.7,0l0.2,7.1c0,0,0.1,0.4,0,0.9L20,28.9
			C20,28.9,19.6,29.6,19.2,28.9z"/>
		<path class="st1" d="M21.4,28.9c0,0-0.3,0.6-0.8,0l-0.2-3.4c0,0,0-0.6,0-0.8l0.2-6.7c0,0,0.3-0.8,0.8-0.1l0.2,6.8
			c0,0,0.1,0.6,0,0.8L21.4,28.9z"/>
		<path class="st1" d="M22.1,28.9l-0.2-3.5c0,0,0-0.6,0-0.9c0-0.3,0.1-8,0.1-8s0.4-0.7,0.9-0.1l0.2,8.2c0,0,0,0.5,0,1l-0.2,3.3
			C22.9,28.9,22.5,29.6,22.1,28.9z"/>
		<path class="st1" d="M24.4,28.8c0,0-0.4,0.8-0.9,0l-0.1-3.2c0,0-0.1-1,0-1.3l0.2-8.7c0,0,0.3-0.8,0.9-0.1l0.2,9c0,0,0,0.8,0,1.2
			L24.4,28.8z"/>
		<path class="st1" d="M24.8,28.8V15.3c0,0,0-0.3,0.3-0.5c0,0,8.1-3,10.3,6.2c0,0,4.9-1.5,5.7,3.7c0,0,0.1,4-4,4.5H25.4
			C25.4,29.2,24.9,29.3,24.8,28.8z"/>
	</g>
</g>
</svg>
