<?xml version="1.0" encoding="utf-8"?>
<!-- Generator: Adobe Illustrator 19.2.1, SVG Export Plug-In . SVG Version: 6.00 Build 0)  -->
<svg version="1.1" id="Слой_1" xmlns="http://www.w3.org/2000/svg" xmlns:xlink="http://www.w3.org/1999/xlink" x="0px" y="0px"
	 viewBox="0 0 48 48" style="enable-background:new 0 0 48 48;" xml:space="preserve">
<style type="text/css">
	.st0{fill:#F58220;}
	.st1{fill:url(#SVGID_1_);}
	.st2{fill:#001722;}
	.st3{fill:#231F20;}
</style>
<g>
	<path class="st0" d="M4.4,34.9H46c1.1,0,2-0.9,2-2V18.8C44,21.3,28.9,30,4.4,34.9z"/>
	<g>
		
			<radialGradient id="SVGID_1_" cx="12.2427" cy="-469.9958" r="2.9606" gradientTransform="matrix(1 0 0 1 6.416 486.083)" gradientUnits="userSpaceOnUse">
			<stop  offset="5.618000e-003" style="stop-color:#FFEEE0"/>
			<stop  offset="0.1096" style="stop-color:#FEE9D7"/>
			<stop  offset="0.2793" style="stop-color:#FDDBBF"/>
			<stop  offset="0.4935" style="stop-color:#FBC597"/>
			<stop  offset="0.744" style="stop-color:#F8A560"/>
			<stop  offset="1" style="stop-color:#F48120"/>
		</radialGradient>
		<path class="st1" d="M18.7,13.2c-1.7,0-3,1.3-3,2.9c0,1.7,1.3,3,3,3c1.7,0,3-1.3,3-2.9C21.7,14.4,20.3,13.2,18.7,13.2z"/>
		<path class="st2" d="M1.6,13.3H0v5.6h1.6c0.9,0,1.5-0.2,2-0.6c0.6-0.5,1-1.3,1-2.2C4.7,14.4,3.4,13.3,1.6,13.3z M2.9,17.5
			c-0.3,0.3-0.8,0.4-1.5,0.4H1.1v-3.7h0.3c0.7,0,1.1,0.1,1.5,0.5c0.4,0.3,0.6,0.9,0.6,1.4C3.5,16.6,3.3,17.2,2.9,17.5z"/>
		<rect x="5.2" y="13.3" class="st2" width="1.1" height="5.6"/>
		<path class="st2" d="M8.9,15.4c-0.7-0.2-0.9-0.4-0.9-0.7c0-0.4,0.3-0.6,0.8-0.6c0.3,0,0.6,0.1,0.9,0.5l0.6-0.7
			c-0.5-0.4-1-0.6-1.7-0.6c-1,0-1.8,0.7-1.8,1.6c0,0.8,0.4,1.2,1.4,1.5c0.4,0.2,0.6,0.3,0.8,0.3c0.2,0.1,0.3,0.3,0.3,0.6
			c0,0.5-0.4,0.8-0.9,0.8c-0.5,0-0.9-0.3-1.2-0.7L6.7,18C7.2,18.7,7.8,19,8.6,19c1.1,0,1.9-0.8,1.9-1.8
			C10.6,16.3,10.2,15.9,8.9,15.4z"/>
		<path class="st2" d="M10.9,16.1c0,1.7,1.3,2.9,3,2.9c0.5,0,0.9-0.1,1.4-0.3v-1.3c-0.4,0.4-0.8,0.6-1.3,0.6c-1.1,0-1.9-0.8-1.9-1.9
			c0-1.1,0.8-1.9,1.8-1.9c0.5,0,0.9,0.2,1.4,0.6v-1.3c-0.5-0.2-0.9-0.3-1.3-0.3C12.2,13.1,10.9,14.4,10.9,16.1z"/>
		<polygon class="st2" points="24.1,17 22.6,13.3 21.4,13.3 23.8,19 24.4,19 26.8,13.3 25.7,13.3 		"/>
		<polygon class="st2" points="27.3,18.9 30.5,18.9 30.5,17.9 28.4,17.9 28.4,16.4 30.4,16.4 30.4,15.5 28.4,15.5 28.4,14.2 
			30.5,14.2 30.5,13.3 27.3,13.3 		"/>
		<path class="st2" d="M34.8,14.9c0-1.1-0.7-1.7-2-1.7h-1.6v5.6h1.1v-2.3h0.1l1.5,2.3h1.3l-1.8-2.4C34.3,16.4,34.8,15.8,34.8,14.9z
			 M32.6,15.9h-0.3v-1.7h0.3c0.7,0,1.1,0.3,1.1,0.8C33.7,15.5,33.3,15.9,32.6,15.9z"/>
		<path class="st3" d="M35.6,13.7c0-0.1-0.1-0.2-0.2-0.2h-0.2V14h0.1v-0.2l0.1,0.2h0.1l-0.2-0.2C35.5,13.8,35.6,13.8,35.6,13.7z
			 M35.4,13.8L35.4,13.8l0-0.1h0C35.4,13.6,35.4,13.6,35.4,13.8C35.4,13.7,35.4,13.8,35.4,13.8z"/>
		<path class="st3" d="M35.4,13.3c-0.2,0-0.4,0.2-0.4,0.4c0,0.2,0.2,0.4,0.4,0.4c0.2,0,0.4-0.2,0.4-0.4
			C35.8,13.5,35.6,13.3,35.4,13.3z M35.4,14.1c-0.2,0-0.3-0.2-0.3-0.4c0-0.2,0.2-0.4,0.3-0.4c0.2,0,0.3,0.2,0.3,0.4
			C35.7,14,35.6,14.1,35.4,14.1z"/>
	</g>
</g>
</svg>
