<?xml version="1.0" encoding="utf-8"?>
<!-- Generator: Adobe Illustrator 19.2.1, SVG Export Plug-In . SVG Version: 6.00 Build 0)  -->
<svg version="1.1" id="Слой_1" xmlns="http://www.w3.org/2000/svg" xmlns:xlink="http://www.w3.org/1999/xlink" x="0px" y="0px"
	 viewBox="0 0 48 48" style="enable-background:new 0 0 48 48;" xml:space="preserve">
<style type="text/css">
	.st0{fill:#E42026;}
	.st1{fill:#FFFFFF;}
</style>
<g>
	<circle class="st0" cx="24" cy="24" r="24"/>
	<path class="st1" d="M23.5,25.8c0,0-1.6-1.3,0-2.6c0,0,2.3-1.4,2.8-3.7c0,0,0.7-3.2-2.1-5.1h1.8l2.2-1.2h-8.1c0,0-4.4,0.1-5.8,3.6
		c0,0-1.3,2.9,0.7,5.3c0,0,1.2,1.7,3.6,1.9l1.6-0.1c0,0-1,1.6,0.6,3.3c0,0-5.5,0.1-7.2,2.3c0,0-3.1,2.9,0.2,6c0,0,2.2,2.1,7.6,1.3
		c0,0,3.9-0.7,5.7-3.8c0,0,1.4-2.9-1-5.2C26,27.9,24.2,26.2,23.5,25.8z M17,19.7c-0.8-2.4,0-4.8,1.8-5.3c1.7-0.5,3.7,1,4.5,3.4
		c0.8,2.4,0,4.8-1.8,5.3C19.8,23.7,17.8,22.1,17,19.7z M24.3,34.5c-2.6,2.1-6,0.9-6,0.9c-4.5-1.4-2.9-4.8-2.9-4.8
		c1.8-2.9,6.4-2.3,6.4-2.3L24,30C26.8,32.3,24.3,34.5,24.3,34.5z"/>
	<polygon class="st1" points="38.9,17.6 35.7,17.6 35.7,14.3 34.2,14.3 34.2,17.6 30.9,17.6 30.9,19.1 34.2,19.1 34.2,22.3 
		35.7,22.3 35.7,19.1 38.9,19.1 	"/>
</g>
</svg>
