<?xml version="1.0" encoding="utf-8"?>
<!-- Generator: Adobe Illustrator 19.2.1, SVG Export Plug-In . SVG Version: 6.00 Build 0)  -->
<svg version="1.1" id="Слой_1" xmlns="http://www.w3.org/2000/svg" xmlns:xlink="http://www.w3.org/1999/xlink" x="0px" y="0px"
	 viewBox="0 0 48 48" style="enable-background:new 0 0 48 48;" xml:space="preserve">
<style type="text/css">
	.st0{fill:#513C35;}
	.st1{fill:#FFFFFF;}
</style>
<g>
	<circle class="st0" cx="24" cy="24" r="24"/>
	<g>
		<path class="st1" d="M36,33.1c0,2-1.5,3.5-3.4,3.5H15.3c-1.9,0-3.4-1.6-3.4-3.5V15.4c0-2,1.5-3.5,3.4-3.5h17.4
			c1.9,0,3.4,1.6,3.4,3.5V33.1z"/>
		<g>
			<path class="st0" d="M28.9,18.7v-3.3c0,0,0.1-0.7,0.7-0.7h3.3c0,0,0.6,0.1,0.6,0.6c0,0.6,0,3.5,0,3.5s-0.1,0.5-0.5,0.5
				c-0.4,0-3.5,0-3.5,0S28.9,19.3,28.9,18.7z"/>
			<path class="st0" d="M14.5,22.3h2.3c0,0-1.3,4.6,2.4,7.7c0,0,2,1.8,4.9,1.8c0,0,3.6-0.2,5.5-2.6c0,0,2.5-2.9,1.6-6.9h2.3V33
				c0,0,0,0.7-0.7,0.7H15.2c0,0-0.7-0.1-0.7-0.7C14.5,32.5,14.5,22.3,14.5,22.3z"/>
			<circle class="st0" cx="24.1" cy="24.3" r="4.7"/>
		</g>
	</g>
</g>
</svg>
