<?xml version="1.0" encoding="utf-8"?>
<!-- Generator: Adobe Illustrator 19.2.1, SVG Export Plug-In . SVG Version: 6.00 Build 0)  -->
<svg version="1.1" id="Слой_1" xmlns="http://www.w3.org/2000/svg" xmlns:xlink="http://www.w3.org/1999/xlink" x="0px" y="0px"
	 viewBox="0 0 48 48" style="enable-background:new 0 0 48 48;" xml:space="preserve">
<style type="text/css">
	.st0{fill-rule:evenodd;clip-rule:evenodd;fill:#FBB231;}
	.st1{fill-rule:evenodd;clip-rule:evenodd;fill:#EC1C2E;}
	.st2{fill-rule:evenodd;clip-rule:evenodd;fill:#FFFFFF;}
	.st3{fill:none;stroke:#FFFFFF;stroke-width:0.216;stroke-miterlimit:2.6131;}
</style>
<g>
	<polygon class="st0" points="33.6,38.4 34.4,38.3 35.1,38.3 35.8,38.2 36.5,38.1 37.2,37.9 37.9,37.7 38.6,37.5 39.2,37.2 
		39.9,36.9 40.5,36.6 41.1,36.3 41.7,35.9 42.2,35.5 42.8,35.1 43.3,34.6 43.8,34.1 44.3,33.7 44.7,33.1 45.1,32.6 45.5,32 
		45.9,31.4 46.3,30.8 46.6,30.2 46.9,29.6 47.1,28.9 47.4,28.3 47.6,27.6 47.7,26.9 47.8,26.2 47.9,25.4 48,24.7 48,24 48,23.2 
		47.9,22.5 47.8,21.8 47.7,21.1 47.6,20.4 47.4,19.7 47.1,19.1 46.9,18.4 46.6,17.8 46.3,17.1 45.9,16.6 45.5,16 45.1,15.4 
		44.7,14.9 44.3,14.3 43.8,13.8 43.3,13.4 42.8,12.9 42.2,12.5 41.7,12.1 41.1,11.7 40.5,11.4 39.9,11.1 39.2,10.8 38.6,10.5 
		37.9,10.3 37.2,10.1 36.5,9.9 35.8,9.8 35.1,9.7 34.4,9.7 33.6,9.6 32.9,9.7 32.1,9.7 31.4,9.8 30.7,9.9 30,10.1 29.3,10.3 
		28.7,10.5 28,10.8 27.4,11.1 26.8,11.4 26.2,11.7 25.6,12.1 25,12.5 24.5,12.9 24,13.4 23.5,13.8 23,14.3 22.5,14.9 22.1,15.4 
		21.7,16 21.3,16.6 21,17.1 20.7,17.8 20.4,18.4 20.1,19.1 19.9,19.7 19.7,20.4 19.6,21.1 19.4,21.8 19.3,22.5 19.3,23.2 19.3,24 
		19.3,24.7 19.3,25.4 19.4,26.2 19.6,26.9 19.7,27.6 19.9,28.3 20.1,28.9 20.4,29.6 20.7,30.2 21,30.8 21.3,31.4 21.7,32 22.1,32.6 
		22.5,33.1 23,33.7 23.5,34.1 24,34.6 24.5,35.1 25,35.5 25.6,35.9 26.2,36.3 26.8,36.6 27.4,36.9 28,37.2 28.7,37.5 29.3,37.7 
		30,37.9 30.7,38.1 31.4,38.2 32.1,38.3 32.9,38.3 33.6,38.4 33.6,38.4 	"/>
	<polygon class="st1" points="14.4,38.4 15.1,38.3 15.9,38.3 16.6,38.2 17.3,38.1 18,37.9 18.7,37.7 19.3,37.5 20,37.2 20.6,36.9 
		21.2,36.6 21.8,36.3 22.4,35.9 23,35.5 23.5,35.1 24,34.6 24.5,34.1 25,33.7 25.5,33.1 25.9,32.6 26.3,32 26.7,31.4 27,30.8 
		27.3,30.2 27.6,29.6 27.9,28.9 28.1,28.3 28.3,27.6 28.4,26.9 28.6,26.2 28.7,25.4 28.7,24.7 28.7,24 28.7,23.2 28.7,22.5 
		28.6,21.8 28.4,21.1 28.3,20.4 28.1,19.7 27.9,19.1 27.6,18.4 27.3,17.8 27,17.1 26.7,16.6 26.3,16 25.9,15.4 25.5,14.9 25,14.3 
		24.5,13.8 24,13.4 23.5,12.9 23,12.5 22.4,12.1 21.8,11.7 21.2,11.4 20.6,11.1 20,10.8 19.3,10.5 18.7,10.3 18,10.1 17.3,9.9 
		16.6,9.8 15.9,9.7 15.1,9.7 14.4,9.6 13.6,9.7 12.9,9.7 12.2,9.8 11.5,9.9 10.8,10.1 10.1,10.3 9.4,10.5 8.8,10.8 8.2,11.1 
		7.5,11.4 6.9,11.7 6.3,12.1 5.8,12.5 5.2,12.9 4.7,13.4 4.2,13.8 3.7,14.3 3.3,14.9 2.9,15.4 2.5,16 2.1,16.6 1.7,17.1 1.4,17.8 
		1.1,18.4 0.9,19.1 0.6,19.7 0.5,20.4 0.3,21.1 0.2,21.8 0.1,22.5 0,23.2 0,24 0,24.7 0.1,25.4 0.2,26.2 0.3,26.9 0.5,27.6 
		0.6,28.3 0.9,28.9 1.1,29.6 1.4,30.2 1.7,30.8 2.1,31.4 2.5,32 2.9,32.6 3.3,33.1 3.7,33.7 4.2,34.1 4.7,34.6 5.2,35.1 5.8,35.5 
		6.3,35.9 6.9,36.3 7.5,36.6 8.2,36.9 8.8,37.2 9.4,37.5 10.1,37.7 10.8,37.9 11.5,38.1 12.2,38.2 12.9,38.3 13.6,38.3 14.4,38.4 
		14.4,38.4 	"/>
	<polygon class="st0" points="22.3,15.1 30,15.1 30,14.4 23,14.4 22.3,15.1 22.3,15.1 	"/>
	<polygon class="st0" points="21.2,16.9 30,16.9 30,16.1 21.6,16.1 21.2,16.9 21.2,16.9 	"/>
	<polygon class="st0" points="20.3,18.6 30,18.6 30,17.8 20.7,17.8 20.3,18.6 20.3,18.6 	"/>
	<polygon class="st0" points="19.7,20.3 30,20.3 30,19.6 20,19.6 19.7,20.3 19.7,20.3 	"/>
	<polygon class="st0" points="20.1,28.7 30,28.7 30,27.9 19.8,27.9 20.1,28.7 20.1,28.7 	"/>
	<polygon class="st0" points="20.8,30.5 30,30.5 30,29.7 20.4,29.7 20.8,30.5 20.8,30.5 	"/>
	<polygon class="st0" points="21.8,32.2 30,32.2 30,31.4 21.3,31.4 21.8,32.2 21.8,32.2 	"/>
	<polygon class="st0" points="23.2,33.9 30,33.9 30,33.1 22.6,33.1 23.2,33.9 23.2,33.9 	"/>
	<polygon class="st0" points="19.4,22.1 30,22.1 30,21.3 19.5,21.3 19.4,22.1 19.4,22.1 	"/>
	<polygon class="st0" points="25.8,27 29.9,27 29.9,26.2 26,26.2 25.8,27 25.8,27 	"/>
	<polygon class="st0" points="26.1,25.3 29.9,25.3 29.9,24.5 26.3,24.5 26.1,25.3 26.1,25.3 	"/>
	<polygon class="st0" points="19.1,24.5 20.2,24.5 20.2,25.3 19.2,25.3 19.1,24.5 19.1,24.5 	"/>
	<polygon class="st2" points="17.2,23.5 17.1,23.5 17,23.5 17,23.5 16.9,23.5 16.9,23.5 16.8,23.5 16.7,23.5 16.7,23.5 16.6,23.5 
		16.5,23.5 16.4,23.4 16.3,23.4 16.2,23.4 16.1,23.4 16,23.5 15.9,23.5 15.8,23.5 15.7,23.5 15.6,23.5 15.5,23.6 15.4,23.6 
		15.4,23.6 15.3,23.7 15.3,23.7 15.3,23.8 15.2,23.8 15.2,23.9 15.2,23.9 15.2,24 15.3,24.1 15.3,24.1 15.3,24.2 15.4,24.3 
		15.6,24.4 15.7,24.4 15.8,24.5 16,24.5 16.2,24.6 16.3,24.6 16.5,24.7 16.6,24.8 16.8,24.9 16.9,25 17,25.2 17.1,25.3 17.1,25.6 
		17.1,25.8 17.1,26.1 17.1,26.3 17,26.5 16.9,26.7 16.8,26.9 16.7,27 16.6,27.2 16.5,27.3 16.3,27.4 16.2,27.4 16,27.5 15.8,27.5 
		15.7,27.6 15.5,27.6 15.3,27.6 15.2,27.6 15,27.6 14.8,27.6 14.6,27.6 14.5,27.6 14.3,27.6 14.1,27.6 14,27.6 13.9,27.6 13.8,27.6 
		13.7,27.6 13.6,27.6 13.5,27.5 13.4,27.5 13.3,27.5 13.3,27.5 13.2,27.4 13.1,27.4 13.3,26.3 13.4,26.3 13.4,26.4 13.5,26.4 
		13.6,26.4 13.7,26.4 13.8,26.4 13.9,26.5 14,26.5 14.1,26.5 14.2,26.5 14.4,26.5 14.5,26.6 14.6,26.6 14.8,26.6 14.9,26.6 
		15.1,26.6 15.2,26.5 15.3,26.5 15.4,26.4 15.5,26.4 15.5,26.3 15.5,26.2 15.6,26.1 15.6,26.1 15.6,25.9 15.6,25.8 15.5,25.7 
		15.4,25.6 15.2,25.6 15,25.5 14.8,25.4 14.7,25.3 14.5,25.3 14.3,25.2 14.1,25 14,24.9 13.8,24.7 13.7,24.5 13.7,24.2 13.7,23.9 
		13.7,23.7 13.8,23.5 13.8,23.4 13.9,23.2 14,23.1 14,22.9 14.1,22.8 14.3,22.7 14.4,22.6 14.6,22.5 14.7,22.5 14.9,22.4 15.1,22.4 
		15.4,22.3 15.6,22.3 15.9,22.3 16.1,22.3 16.3,22.3 16.4,22.3 16.6,22.3 16.7,22.3 16.8,22.4 16.9,22.4 17,22.4 17.1,22.4 
		17.1,22.4 17.2,22.4 17.2,22.4 17.3,22.4 17.3,22.4 17.4,22.4 17.4,22.4 17.2,23.5 17.2,23.5 	"/>
	<polyline class="st3" points="17.2,23.5 17.2,23.5 17.1,23.5 17,23.5 17,23.5 16.9,23.5 16.9,23.5 16.8,23.5 16.7,23.5 16.7,23.5 
		16.6,23.5 16.5,23.5 16.4,23.4 16.3,23.4 16.2,23.4 16.1,23.4 16,23.5 15.9,23.5 15.9,23.5 15.8,23.5 15.7,23.5 15.6,23.5 
		15.5,23.6 15.4,23.6 15.4,23.6 15.3,23.7 15.3,23.7 15.3,23.8 15.2,23.8 15.2,23.9 15.2,23.9 15.2,24 15.3,24.1 15.3,24.1 
		15.3,24.2 15.3,24.2 15.4,24.3 15.6,24.4 15.7,24.4 15.8,24.5 16,24.5 16.2,24.6 16.3,24.6 16.5,24.7 16.6,24.8 16.8,24.9 16.9,25 
		17,25.2 17.1,25.3 17.1,25.6 17.1,25.8 17.1,26.1 17.1,26.1 17.1,26.3 17,26.5 16.9,26.7 16.8,26.9 16.7,27 16.6,27.2 16.5,27.3 
		16.3,27.4 16.2,27.4 16,27.5 15.8,27.5 15.7,27.6 15.5,27.6 15.3,27.6 15.2,27.6 15,27.6 15,27.6 14.8,27.6 14.6,27.6 14.5,27.6 
		14.3,27.6 14.1,27.6 14,27.6 13.9,27.6 13.8,27.6 13.7,27.6 13.6,27.6 13.5,27.5 13.4,27.5 13.3,27.5 13.3,27.5 13.2,27.4 
		13.1,27.4 13.3,26.3 13.3,26.3 13.4,26.3 13.4,26.4 13.5,26.4 13.6,26.4 13.7,26.4 13.8,26.4 13.9,26.5 14,26.5 14.1,26.5 
		14.2,26.5 14.4,26.5 14.5,26.6 14.6,26.6 14.8,26.6 14.9,26.6 15.1,26.6 15.1,26.6 15.2,26.5 15.3,26.5 15.4,26.4 15.5,26.4 
		15.5,26.3 15.5,26.2 15.6,26.1 15.6,26.1 15.6,26.1 15.6,25.9 15.6,25.8 15.5,25.7 15.4,25.6 15.2,25.6 15,25.5 14.8,25.4 
		14.7,25.3 14.5,25.3 14.3,25.2 14.1,25 14,24.9 13.8,24.7 13.7,24.5 13.7,24.2 13.7,23.9 13.7,23.9 13.7,23.7 13.8,23.5 13.8,23.4 
		13.9,23.2 14,23.1 14,22.9 14.1,22.8 14.3,22.7 14.4,22.6 14.6,22.5 14.7,22.5 14.9,22.4 15.1,22.4 15.4,22.3 15.6,22.3 15.9,22.3 
		15.9,22.3 16.1,22.3 16.3,22.3 16.4,22.3 16.6,22.3 16.7,22.3 16.8,22.4 16.9,22.4 17,22.4 17.1,22.4 17.1,22.4 17.2,22.4 
		17.2,22.4 17.3,22.4 17.3,22.4 17.4,22.4 17.4,22.4 17.2,23.5 	"/>
	<polygon class="st2" points="18.3,21.2 19.7,21.2 19.5,22.4 20.3,22.4 20.1,23.5 19.2,23.5 18.8,26.2 18.8,26.3 18.8,26.4 
		18.8,26.4 18.9,26.5 19,26.5 19.1,26.6 19.2,26.6 19.3,26.6 19.4,26.6 19.5,26.6 19.6,26.6 19.7,26.5 19.8,26.5 19.8,26.5 
		19.8,26.5 19.8,26.5 19.7,27.4 19.6,27.4 19.6,27.4 19.6,27.4 19.5,27.5 19.5,27.5 19.5,27.5 19.4,27.5 19.4,27.5 19.3,27.5 
		19.3,27.5 19.2,27.6 19.2,27.6 19.1,27.6 19,27.6 18.9,27.6 18.9,27.6 18.5,27.6 18.3,27.6 18.1,27.6 18,27.5 17.8,27.5 17.7,27.5 
		17.6,27.4 17.6,27.4 17.5,27.3 17.4,27.2 17.4,27.1 17.4,27.1 17.4,27 17.4,26.9 17.4,26.8 17.4,26.7 17.4,26.5 18.3,21.2 
		18.3,21.2 	"/>
	<polyline class="st3" points="18.3,21.2 19.7,21.2 19.5,22.4 20.3,22.4 20.1,23.5 19.2,23.5 18.8,26.2 18.8,26.2 18.8,26.3 
		18.8,26.4 18.8,26.4 18.9,26.5 19,26.5 19.1,26.6 19.2,26.6 19.3,26.6 19.3,26.6 19.4,26.6 19.5,26.6 19.6,26.6 19.7,26.5 
		19.8,26.5 19.8,26.5 19.8,26.5 19.8,26.5 19.7,27.4 19.7,27.4 19.6,27.4 19.6,27.4 19.6,27.4 19.5,27.5 19.5,27.5 19.5,27.5 
		19.4,27.5 19.4,27.5 19.3,27.5 19.3,27.5 19.2,27.6 19.2,27.6 19.1,27.6 19,27.6 18.9,27.6 18.9,27.6 18.5,27.6 18.5,27.6 
		18.3,27.6 18.1,27.6 18,27.5 17.8,27.5 17.7,27.5 17.6,27.4 17.6,27.4 17.5,27.3 17.4,27.2 17.4,27.1 17.4,27.1 17.4,27 17.4,26.9 
		17.4,26.8 17.4,26.7 17.4,26.5 18.3,21.2 	"/>
	<polyline class="st3" points="21.3,25.3 21.3,25.3 21.3,25.4 21.3,25.5 21.3,25.6 21.4,25.7 21.4,25.8 21.4,25.9 21.5,26 21.5,26 
		21.6,26.1 21.7,26.2 21.8,26.3 21.8,26.3 21.9,26.4 22,26.4 22.1,26.5 22.2,26.5 22.2,26.5 22.3,26.5 22.5,26.5 22.6,26.5 
		22.7,26.5 22.8,26.5 23,26.5 23.1,26.5 23.2,26.5 23.4,26.5 23.5,26.5 23.6,26.5 23.8,26.4 23.9,26.4 24,26.3 24.2,26.2 24.3,26.1 
		24.1,27.3 24.1,27.3 24,27.4 24,27.4 23.9,27.4 23.8,27.5 23.7,27.5 23.7,27.5 23.6,27.5 23.5,27.6 23.4,27.6 23.3,27.6 23.2,27.6 
		23.1,27.6 23,27.6 22.9,27.6 22.7,27.6 22.5,27.6 22.5,27.6 22.3,27.6 22.1,27.6 21.8,27.5 21.6,27.5 21.3,27.4 21.1,27.3 
		20.9,27.2 20.7,27.1 20.5,26.9 20.3,26.7 20.2,26.5 20.1,26.2 20,25.9 19.9,25.6 19.9,25.2 20,24.9 20,24.9 20,24.7 20,24.5 
		20,24.3 20.1,24.1 20.2,23.9 20.3,23.7 20.4,23.5 20.5,23.3 20.7,23.1 20.8,22.9 21.1,22.7 21.3,22.6 21.6,22.5 21.9,22.4 
		22.2,22.3 22.6,22.3 22.6,22.3 22.8,22.3 23,22.3 23.2,22.4 23.4,22.4 23.6,22.5 23.8,22.6 24,22.7 24.1,22.8 24.3,23 24.4,23.2 
		24.5,23.4 24.6,23.7 24.6,24 24.6,24.3 24.6,24.7 24.5,25.1 24.5,25.4 21,25.4 21.2,24.4 23.3,24.4 23.3,24.4 23.3,24.3 23.3,24.2 
		23.3,24.1 23.3,24 23.2,23.9 23.2,23.8 23.2,23.7 23.1,23.7 23.1,23.6 23,23.5 22.9,23.5 22.8,23.5 22.8,23.4 22.7,23.4 22.6,23.4 
		22.5,23.4 22.5,23.4 22.4,23.4 22.3,23.4 22.3,23.4 22.2,23.5 22.1,23.5 22,23.5 21.9,23.6 21.9,23.7 21.8,23.7 21.8,23.8 
		21.7,23.9 21.7,24 21.6,24 21.6,24.1 21.6,24.2 21.5,24.3 21.3,25.3 	"/>
	<polygon class="st2" points="32.9,22.7 32.8,22.7 32.8,22.6 32.7,22.6 32.6,22.6 32.6,22.5 32.5,22.5 32.4,22.5 32.3,22.5 
		32.2,22.4 32.1,22.4 32,22.4 31.9,22.4 31.8,22.4 31.7,22.4 31.6,22.4 31.5,22.4 31.3,22.4 31.2,22.4 31.1,22.4 30.9,22.4 
		30.8,22.5 30.7,22.5 30.5,22.6 30.4,22.7 30.3,22.8 30.1,22.9 30,23 29.9,23.2 29.8,23.4 29.7,23.7 29.6,24 29.5,24.3 29.5,24.4 
		29.5,24.6 29.5,24.8 29.5,24.9 29.5,25.1 29.5,25.3 29.6,25.4 29.6,25.6 29.7,25.7 29.8,25.8 29.9,25.9 30,26 30.1,26.1 30.3,26.2 
		30.4,26.2 30.6,26.3 30.7,26.3 30.8,26.3 30.9,26.3 31,26.3 31.1,26.3 31.2,26.3 31.3,26.3 31.4,26.3 31.5,26.3 31.7,26.3 
		31.8,26.3 31.9,26.2 32,26.2 32.1,26.1 32.2,26 32.3,25.9 32.1,27.2 32.1,27.3 32.1,27.3 32,27.3 32,27.4 31.9,27.4 31.9,27.4 
		31.8,27.5 31.7,27.5 31.6,27.5 31.5,27.5 31.3,27.6 31.1,27.6 31,27.6 30.7,27.6 30.5,27.6 30.2,27.6 30,27.6 29.8,27.5 29.5,27.4 
		29.3,27.3 29.1,27.2 28.9,27.1 28.7,26.9 28.5,26.7 28.4,26.5 28.2,26.3 28.1,26 28,25.7 28,25.4 28,25 28,24.6 28,24.2 28.1,24 
		28.1,23.8 28.2,23.7 28.2,23.5 28.3,23.3 28.3,23.1 28.4,23 28.4,22.8 28.5,22.7 28.6,22.5 28.7,22.4 28.8,22.3 28.9,22.2 28.9,22 
		29,21.9 29.1,21.8 29.3,21.7 29.4,21.6 29.5,21.6 29.6,21.5 29.7,21.4 29.9,21.3 30,21.3 30.1,21.2 30.3,21.2 30.4,21.1 30.6,21.1 
		30.8,21.1 30.9,21.1 31.1,21 31.3,21 31.5,21 31.6,21 31.8,21 31.9,21.1 32.1,21.1 32.2,21.1 32.3,21.1 32.5,21.1 32.6,21.2 
		32.7,21.2 32.8,21.2 32.9,21.3 32.9,21.3 33,21.3 33.1,21.3 33.1,21.4 33.1,21.4 32.9,22.7 32.9,22.7 	"/>
	<polyline class="st3" points="32.9,22.7 32.9,22.7 32.8,22.7 32.8,22.6 32.7,22.6 32.6,22.6 32.6,22.5 32.5,22.5 32.4,22.5 
		32.3,22.5 32.2,22.4 32.1,22.4 32,22.4 31.9,22.4 31.8,22.4 31.7,22.4 31.6,22.4 31.5,22.4 31.5,22.4 31.3,22.4 31.2,22.4 
		31.1,22.4 30.9,22.4 30.8,22.5 30.7,22.5 30.5,22.6 30.4,22.7 30.3,22.8 30.1,22.9 30,23 29.9,23.2 29.8,23.4 29.7,23.7 29.6,24 
		29.5,24.3 29.5,24.3 29.5,24.4 29.5,24.6 29.5,24.8 29.5,24.9 29.5,25.1 29.5,25.3 29.6,25.4 29.6,25.6 29.7,25.7 29.8,25.8 
		29.9,25.9 30,26 30.1,26.1 30.3,26.2 30.4,26.2 30.6,26.3 30.6,26.3 30.7,26.3 30.8,26.3 30.9,26.3 31,26.3 31.1,26.3 31.2,26.3 
		31.3,26.3 31.4,26.3 31.5,26.3 31.7,26.3 31.8,26.3 31.9,26.2 32,26.2 32.1,26.1 32.2,26 32.3,25.9 32.1,27.2 32.1,27.2 32.1,27.3 
		32.1,27.3 32,27.3 32,27.4 31.9,27.4 31.9,27.4 31.8,27.5 31.7,27.5 31.6,27.5 31.5,27.5 31.3,27.6 31.1,27.6 31,27.6 30.7,27.6 
		30.5,27.6 30.2,27.6 30.2,27.6 30,27.6 29.8,27.5 29.5,27.4 29.3,27.3 29.1,27.2 28.9,27.1 28.7,26.9 28.5,26.7 28.4,26.5 
		28.2,26.3 28.1,26 28,25.7 28,25.4 28,25 28,24.6 28,24.2 28,24.2 28.1,24 28.1,23.8 28.2,23.7 28.2,23.5 28.3,23.3 28.3,23.1 
		28.4,23 28.4,22.8 28.5,22.7 28.6,22.5 28.7,22.4 28.8,22.3 28.9,22.2 28.9,22 29,21.9 29.1,21.8 29.3,21.7 29.4,21.6 29.5,21.6 
		29.6,21.5 29.7,21.4 29.9,21.3 30,21.3 30.1,21.2 30.3,21.2 30.4,21.1 30.6,21.1 30.8,21.1 30.9,21.1 31.1,21 31.3,21 31.5,21 
		31.5,21 31.6,21 31.8,21 31.9,21.1 32.1,21.1 32.2,21.1 32.3,21.1 32.5,21.1 32.6,21.2 32.7,21.2 32.8,21.2 32.9,21.3 32.9,21.3 
		33,21.3 33.1,21.3 33.1,21.4 33.1,21.4 32.9,22.7 	"/>
	<polygon class="st2" points="44.8,27.6 43.5,27.6 43.6,27.1 43.6,27 43.5,27.1 43.4,27.2 43.3,27.3 43.3,27.4 43.2,27.4 43.1,27.5 
		43,27.5 42.9,27.6 42.8,27.6 42.7,27.6 42.6,27.6 42.5,27.7 42.4,27.7 42.3,27.7 42.2,27.7 42.1,27.7 41.9,27.7 41.7,27.6 
		41.4,27.5 41.3,27.4 41.1,27.3 40.9,27.1 40.8,26.9 40.7,26.7 40.6,26.5 40.5,26.3 40.4,26 40.4,25.8 40.4,25.5 40.4,25.3 40.4,25 
		40.5,24.8 40.5,24.5 40.6,24.2 40.7,24 40.8,23.8 41,23.5 41.1,23.4 41.3,23.2 41.4,23 41.6,22.9 41.8,22.8 42,22.7 42.1,22.6 
		42.3,22.5 42.5,22.5 42.7,22.4 42.9,22.4 43.1,22.4 43.2,22.4 43.3,22.5 43.4,22.5 43.6,22.5 43.7,22.6 43.8,22.6 43.8,22.7 
		43.9,22.7 44,22.8 44.1,22.9 44.1,22.9 44.2,23 44.2,23.1 44.2,23.1 44.3,23.2 44.3,23.2 44.6,21.3 45.9,21.3 44.8,27.6 44.8,27.6 
			"/>
	<polyline class="st3" points="44.8,27.6 43.5,27.6 43.6,27.1 43.6,27 43.6,27 43.5,27.1 43.4,27.2 43.3,27.3 43.3,27.4 43.2,27.4 
		43.1,27.5 43,27.5 42.9,27.6 42.8,27.6 42.7,27.6 42.6,27.6 42.5,27.7 42.4,27.7 42.3,27.7 42.2,27.7 42.1,27.7 42.1,27.7 
		41.9,27.7 41.7,27.6 41.4,27.5 41.3,27.4 41.1,27.3 40.9,27.1 40.8,26.9 40.7,26.7 40.6,26.5 40.5,26.3 40.4,26 40.4,25.8 
		40.4,25.5 40.4,25.3 40.4,25 40.5,24.8 40.5,24.8 40.5,24.5 40.6,24.2 40.7,24 40.8,23.8 41,23.5 41.1,23.4 41.3,23.2 41.4,23 
		41.6,22.9 41.8,22.8 42,22.7 42.1,22.6 42.3,22.5 42.5,22.5 42.7,22.4 42.9,22.4 42.9,22.4 43.1,22.4 43.2,22.4 43.3,22.5 
		43.4,22.5 43.6,22.5 43.7,22.6 43.8,22.6 43.8,22.7 43.9,22.7 44,22.8 44.1,22.9 44.1,22.9 44.2,23 44.2,23.1 44.2,23.1 44.3,23.2 
		44.3,23.2 44.6,21.3 45.9,21.3 44.8,27.6 	"/>
	<polygon class="st0" points="42.6,26.4 42.8,26.4 42.9,26.4 43,26.4 43.1,26.3 43.2,26.3 43.3,26.2 43.4,26.1 43.5,26 43.6,25.9 
		43.6,25.8 43.7,25.7 43.8,25.6 43.8,25.5 43.8,25.3 43.9,25.2 43.9,25.1 43.9,24.9 43.9,24.8 43.9,24.7 43.9,24.5 43.9,24.4 
		43.9,24.3 43.9,24.2 43.8,24.1 43.8,24 43.7,23.9 43.7,23.8 43.6,23.7 43.5,23.7 43.4,23.6 43.3,23.6 43.2,23.6 43.1,23.6 43,23.6 
		42.9,23.7 42.7,23.7 42.7,23.8 42.6,23.8 42.5,23.9 42.4,24 42.3,24.1 42.2,24.2 42.2,24.4 42.1,24.5 42.1,24.6 42,24.7 42,24.9 
		42,25 42,25.2 42,25.5 42,25.7 42.1,25.9 42.2,26.1 42.3,26.3 42.4,26.4 42.6,26.4 42.6,26.4 	"/>
	<polygon class="st2" points="12.9,26.5 12.7,27.6 11.5,27.6 11.5,27.4 11.5,27.2 11.5,27.1 11.6,27 11.5,27.1 11.4,27.2 11.3,27.2 
		11.2,27.3 11.1,27.4 11,27.4 10.9,27.5 10.7,27.5 10.6,27.6 10.4,27.6 10.3,27.7 10.2,27.7 10,27.7 9.9,27.7 9.7,27.7 9.6,27.7 
		9.4,27.6 9.3,27.6 9.2,27.5 9,27.4 8.9,27.4 8.8,27.3 8.8,27.2 8.7,27.1 8.6,27 8.6,26.9 8.5,26.8 8.5,26.7 8.5,26.5 8.5,26.4 
		8.5,26.3 8.5,26.2 8.5,26 8.5,25.8 8.6,25.7 8.6,25.5 8.7,25.4 8.8,25.2 8.9,25.1 9,25 9.1,24.9 9.3,24.7 9.4,24.7 9.5,24.6 
		9.7,24.5 9.9,24.5 10,24.4 10.2,24.4 10.2,24.4 10.2,24.4 10.3,24.4 10.3,24.4 10.4,24.4 10.4,24.4 10.5,24.3 10.6,24.3 10.7,24.3 
		10.8,24.3 10.9,24.3 10.9,24.3 11,24.3 11.1,24.3 11.1,24.3 11.2,24.3 11.3,24.3 11.4,24.3 11.5,24.3 11.6,24.3 11.7,24.3 
		11.8,24.3 11.8,24.3 11.9,24.3 11.9,24.3 11.9,24.2 11.9,24.1 11.9,24 11.9,23.9 11.9,23.8 11.8,23.7 11.7,23.6 11.6,23.6 
		11.5,23.5 11.4,23.5 11.3,23.5 11.2,23.5 11,23.5 10.9,23.5 10.7,23.5 10.5,23.5 10.4,23.5 10.2,23.5 10.1,23.5 9.9,23.6 9.8,23.6 
		9.7,23.6 9.6,23.6 9.5,23.7 9.4,23.7 9.3,23.7 9.2,23.8 9.6,22.6 9.7,22.5 9.8,22.5 9.9,22.5 10,22.4 10.2,22.4 10.3,22.4 
		10.4,22.4 10.5,22.4 10.7,22.4 10.8,22.4 11,22.4 11.1,22.4 11.3,22.4 11.4,22.4 11.6,22.4 11.8,22.4 11.9,22.4 12,22.4 12.2,22.4 
		12.3,22.5 12.5,22.5 12.6,22.6 12.8,22.7 12.9,22.8 13,22.9 13.2,23 13.2,23.1 13.3,23.3 13.4,23.4 13.4,23.6 13.4,23.8 13.4,24 
		12.9,26.5 12.9,26.5 	"/>
	<polyline class="st3" points="12.9,26.5 12.7,27.6 11.5,27.6 11.5,27.6 11.5,27.4 11.5,27.2 11.5,27.1 11.6,27 11.6,27 11.5,27.1 
		11.4,27.2 11.3,27.2 11.2,27.3 11.1,27.4 11,27.4 10.9,27.5 10.7,27.5 10.6,27.6 10.4,27.6 10.3,27.7 10.2,27.7 10,27.7 9.9,27.7 
		9.7,27.7 9.6,27.7 9.6,27.7 9.4,27.6 9.3,27.6 9.2,27.5 9,27.4 8.9,27.4 8.8,27.3 8.8,27.2 8.7,27.1 8.6,27 8.6,26.9 8.5,26.8 
		8.5,26.7 8.5,26.5 8.5,26.4 8.5,26.3 8.5,26.2 8.5,26.2 8.5,26 8.5,25.8 8.6,25.7 8.6,25.5 8.7,25.4 8.8,25.2 8.9,25.1 9,25 
		9.1,24.9 9.3,24.7 9.4,24.7 9.5,24.6 9.7,24.5 9.9,24.5 10,24.4 10.2,24.4 10.2,24.4 10.2,24.4 10.2,24.4 10.3,24.4 10.3,24.4 
		10.4,24.4 10.4,24.4 10.5,24.3 10.6,24.3 10.7,24.3 10.8,24.3 10.9,24.3 10.9,24.3 11,24.3 11.1,24.3 11.1,24.3 11.2,24.3 
		11.2,24.3 11.3,24.3 11.4,24.3 11.5,24.3 11.6,24.3 11.7,24.3 11.8,24.3 11.8,24.3 11.9,24.3 11.9,24.3 11.9,24.3 11.9,24.2 
		11.9,24.1 11.9,24 11.9,24 11.9,23.9 11.9,23.8 11.8,23.7 11.7,23.6 11.6,23.6 11.5,23.5 11.4,23.5 11.3,23.5 11.3,23.5 11.2,23.5 
		11,23.5 10.9,23.5 10.7,23.5 10.5,23.5 10.4,23.5 10.2,23.5 10.1,23.5 9.9,23.6 9.8,23.6 9.7,23.6 9.6,23.6 9.5,23.7 9.4,23.7 
		9.3,23.7 9.2,23.8 9.6,22.6 9.6,22.6 9.7,22.5 9.8,22.5 9.9,22.5 10,22.4 10.2,22.4 10.3,22.4 10.4,22.4 10.5,22.4 10.7,22.4 
		10.8,22.4 11,22.4 11.1,22.4 11.3,22.4 11.4,22.4 11.6,22.4 11.8,22.4 11.8,22.4 11.9,22.4 12,22.4 12.2,22.4 12.3,22.5 12.5,22.5 
		12.6,22.6 12.8,22.7 12.9,22.8 13,22.9 13.2,23 13.2,23.1 13.3,23.3 13.4,23.4 13.4,23.6 13.4,23.8 13.4,24 12.9,26.5 	"/>
	<polygon class="st1" points="11.7,25.3 11.7,25.2 11.7,25.2 11.7,25.2 11.6,25.2 11.6,25.2 11.5,25.2 11.4,25.2 11.3,25.2 
		11.3,25.2 11.2,25.2 11.1,25.2 11,25.2 11,25.2 10.9,25.2 10.8,25.3 10.8,25.3 10.7,25.3 10.7,25.3 10.7,25.3 10.6,25.3 10.5,25.4 
		10.5,25.4 10.4,25.4 10.3,25.5 10.3,25.5 10.2,25.6 10.2,25.6 10.1,25.7 10.1,25.7 10,25.8 10,25.9 10,26 10,26.1 10,26.3 10,26.4 
		10.1,26.4 10.2,26.5 10.3,26.5 10.3,26.5 10.4,26.5 10.6,26.5 10.7,26.5 10.8,26.5 10.9,26.5 11,26.4 11.1,26.4 11.2,26.3 
		11.3,26.3 11.3,26.2 11.4,26.2 11.4,26.1 11.5,26.1 11.5,26 11.5,26 11.6,25.9 11.6,25.8 11.6,25.7 11.7,25.5 11.7,25.4 11.7,25.3 
		11.7,25.3 	"/>
	<polygon class="st2" points="2.7,27.6 1.4,27.6 2.5,21.2 4.8,21.2 5,25 6.6,21.2 9,21.2 7.8,27.6 6.5,27.6 7.3,22.9 7.3,22.9 
		5.3,27.6 3.8,27.6 3.8,27.4 3.8,26.9 3.7,26.1 3.7,25.3 3.6,24.4 3.6,23.6 3.6,23.1 3.6,22.9 3.5,22.9 3.5,22.9 3.5,22.9 3.5,22.9 
		2.7,27.6 2.7,27.6 	"/>
	<polyline class="st3" points="2.7,27.6 1.4,27.6 2.5,21.2 4.8,21.2 5,25 6.6,21.2 9,21.2 7.8,27.6 6.5,27.6 7.3,22.9 7.3,22.9 
		5.3,27.6 3.8,27.6 3.8,27.6 3.8,27.4 3.8,26.9 3.7,26.1 3.7,25.3 3.6,24.4 3.6,23.6 3.6,23.1 3.6,22.9 3.6,22.9 3.5,22.9 3.5,22.9 
		3.5,22.9 3.5,22.9 2.7,27.6 	"/>
	<polygon class="st2" points="36.9,26.5 36.7,27.6 35.5,27.6 35.5,27.4 35.5,27.2 35.5,27.1 35.5,27 35.5,27.1 35.4,27.2 35.3,27.3 
		35.2,27.3 35.1,27.4 35,27.4 34.9,27.5 34.8,27.6 34.6,27.6 34.5,27.6 34.4,27.7 34.2,27.7 34.1,27.7 33.9,27.7 33.8,27.7 
		33.7,27.7 33.5,27.6 33.4,27.6 33.2,27.5 33.1,27.4 33,27.4 32.9,27.3 32.8,27.2 32.7,27.1 32.7,27 32.6,26.9 32.6,26.8 32.6,26.7 
		32.6,26.5 32.5,26.4 32.5,26.3 32.5,26.2 32.5,26 32.6,25.8 32.6,25.7 32.7,25.5 32.8,25.4 32.8,25.2 33,25.1 33.1,25 33.2,24.9 
		33.3,24.7 33.5,24.7 33.6,24.6 33.8,24.5 33.9,24.5 34.1,24.4 34.2,24.4 34.3,24.4 34.3,24.4 34.3,24.4 34.4,24.4 34.4,24.4 
		34.5,24.4 34.6,24.3 34.6,24.3 34.7,24.3 34.8,24.3 34.9,24.3 35,24.3 35.1,24.3 35.1,24.3 35.2,24.3 35.2,24.3 35.4,24.3 
		35.5,24.3 35.6,24.3 35.7,24.3 35.8,24.3 35.9,24.3 35.9,24.3 35.9,24.3 35.9,24.3 36,24.2 36,24.1 36,24 36,23.9 35.9,23.8 
		35.9,23.7 35.8,23.6 35.7,23.6 35.6,23.5 35.5,23.5 35.4,23.5 35.2,23.5 35.1,23.5 34.9,23.5 34.8,23.5 34.6,23.5 34.5,23.5 
		34.3,23.5 34.2,23.5 34,23.6 33.9,23.6 33.7,23.6 33.6,23.6 33.5,23.7 33.4,23.7 33.4,23.7 33.3,23.8 33.7,22.6 33.8,22.5 
		33.9,22.5 34,22.5 34.1,22.4 34.2,22.4 34.3,22.4 34.5,22.4 34.6,22.4 34.7,22.4 34.9,22.4 35,22.4 35.2,22.4 35.3,22.4 35.5,22.4 
		35.6,22.4 35.8,22.4 35.9,22.4 36.1,22.4 36.2,22.4 36.4,22.5 36.5,22.5 36.7,22.6 36.8,22.7 37,22.8 37.1,22.9 37.2,23 37.3,23.1 
		37.4,23.3 37.4,23.4 37.5,23.6 37.5,23.8 37.4,24 36.9,26.5 36.9,26.5 	"/>
	<polygon class="st2" points="36.7,27.6 36.8,27.6 37,26.5 36.9,26.5 36.7,27.6 36.7,27.6 36.7,27.6 36.8,27.6 36.8,27.6 36.7,27.6 
		36.7,27.6 	"/>
	<polygon class="st2" points="35.5,27.6 35.5,27.6 36.7,27.6 36.7,27.6 35.5,27.6 35.5,27.6 35.5,27.6 35.5,27.6 35.5,27.6 
		35.5,27.6 35.5,27.6 	"/>
	<polygon class="st2" points="35.6,27.1 35.5,27 35.5,27.1 35.5,27.2 35.5,27.4 35.5,27.6 35.5,27.6 35.6,27.4 35.6,27.2 35.6,27.1 
		35.6,27.1 35.5,27 35.6,27.1 35.6,27.1 	"/>
	<polygon class="st2" points="33.7,27.7 33.7,27.7 33.8,27.7 33.9,27.7 34.1,27.7 34.2,27.7 34.4,27.7 34.5,27.7 34.6,27.6 
		34.8,27.6 34.9,27.5 35,27.5 35.1,27.4 35.2,27.4 35.3,27.3 35.4,27.2 35.5,27.1 35.6,27.1 35.5,27 35.5,27.1 35.4,27.2 35.3,27.2 
		35.2,27.3 35.1,27.4 35,27.4 34.9,27.5 34.7,27.5 34.6,27.6 34.5,27.6 34.4,27.6 34.2,27.6 34.1,27.7 33.9,27.7 33.8,27.6 
		33.7,27.6 33.7,27.6 33.7,27.7 33.7,27.7 	"/>
	<polygon class="st2" points="32.5,26.2 32.5,26.2 32.5,26.3 32.5,26.4 32.5,26.5 32.6,26.7 32.6,26.8 32.6,26.9 32.7,27 32.7,27.1 
		32.8,27.2 32.9,27.3 33,27.4 33.1,27.5 33.2,27.5 33.3,27.6 33.5,27.6 33.7,27.7 33.7,27.6 33.5,27.6 33.4,27.5 33.2,27.5 
		33.1,27.4 33,27.3 32.9,27.2 32.8,27.2 32.8,27.1 32.7,27 32.7,26.9 32.6,26.8 32.6,26.6 32.6,26.5 32.6,26.4 32.6,26.3 32.6,26.2 
		32.6,26.2 32.5,26.2 32.5,26.2 	"/>
	<polygon class="st2" points="34.2,24.4 34.2,24.4 34.1,24.4 33.9,24.4 33.7,24.5 33.6,24.6 33.4,24.6 33.3,24.7 33.2,24.8 33,24.9 
		32.9,25.1 32.8,25.2 32.7,25.3 32.7,25.5 32.6,25.7 32.5,25.8 32.5,26 32.5,26.2 32.6,26.2 32.6,26 32.6,25.9 32.6,25.7 32.7,25.5 
		32.8,25.4 32.9,25.2 33,25.1 33.1,25 33.2,24.9 33.3,24.8 33.5,24.7 33.6,24.6 33.8,24.5 33.9,24.5 34.1,24.4 34.2,24.4 34.2,24.4 
		34.2,24.4 34.2,24.4 	"/>
	<polygon class="st2" points="35.2,24.3 35.2,24.3 35.2,24.3 35.1,24.3 35.1,24.3 35,24.3 34.9,24.3 34.8,24.3 34.7,24.3 34.6,24.3 
		34.6,24.3 34.5,24.3 34.4,24.3 34.4,24.3 34.3,24.3 34.3,24.4 34.3,24.4 34.2,24.4 34.2,24.4 34.3,24.4 34.3,24.4 34.3,24.4 
		34.4,24.4 34.4,24.4 34.5,24.4 34.6,24.4 34.6,24.4 34.7,24.4 34.8,24.3 34.9,24.3 35,24.3 35.1,24.3 35.1,24.3 35.2,24.3 
		35.2,24.3 35.2,24.3 35.2,24.3 35.2,24.3 	"/>
	<polygon class="st2" points="35.9,24.3 35.9,24.3 35.9,24.3 35.9,24.3 35.8,24.3 35.7,24.3 35.6,24.3 35.5,24.3 35.4,24.3 
		35.2,24.3 35.2,24.3 35.4,24.3 35.5,24.3 35.6,24.3 35.7,24.3 35.8,24.3 35.9,24.3 35.9,24.3 35.9,24.3 36,24.3 35.9,24.3 36,24.3 
		36,24.3 35.9,24.3 35.9,24.3 	"/>
	<polygon class="st2" points="35.9,24 35.9,24 35.9,24.1 35.9,24.2 35.9,24.3 35.9,24.3 36,24.3 36,24.3 36,24.2 36,24.1 36,24 
		36,24 35.9,24 35.9,24 	"/>
	<polygon class="st2" points="35.4,23.5 35.4,23.5 35.5,23.5 35.6,23.6 35.7,23.6 35.8,23.7 35.8,23.7 35.9,23.8 35.9,23.9 35.9,24 
		36,24 36,23.9 35.9,23.8 35.9,23.7 35.8,23.6 35.7,23.5 35.6,23.5 35.5,23.5 35.4,23.5 35.4,23.5 35.4,23.5 35.4,23.5 	"/>
	<polygon class="st2" points="33.3,23.8 33.3,23.8 33.4,23.8 33.4,23.7 33.5,23.7 33.6,23.7 33.8,23.6 33.9,23.6 34,23.6 34.2,23.6 
		34.3,23.6 34.5,23.5 34.6,23.5 34.8,23.5 34.9,23.5 35.1,23.5 35.2,23.5 35.4,23.5 35.4,23.5 35.2,23.5 35.1,23.4 34.9,23.4 
		34.8,23.5 34.6,23.5 34.5,23.5 34.3,23.5 34.2,23.5 34,23.5 33.9,23.6 33.7,23.6 33.6,23.6 33.5,23.6 33.4,23.7 33.4,23.7 
		33.3,23.7 33.3,23.8 33.3,23.8 33.3,23.8 	"/>
	<polygon class="st2" points="33.6,22.6 33.6,22.6 33.3,23.8 33.3,23.8 33.7,22.6 33.7,22.6 33.6,22.6 33.6,22.6 33.6,22.6 
		33.6,22.6 33.6,22.6 	"/>
	<polygon class="st2" points="35.8,22.3 35.8,22.3 35.6,22.3 35.5,22.3 35.3,22.3 35.2,22.3 35,22.3 34.9,22.3 34.7,22.3 34.6,22.3 
		34.5,22.4 34.3,22.4 34.2,22.4 34.1,22.4 34,22.4 33.9,22.5 33.8,22.5 33.6,22.6 33.7,22.6 33.8,22.6 33.9,22.5 34,22.5 34.1,22.5 
		34.2,22.5 34.4,22.4 34.5,22.4 34.6,22.4 34.7,22.4 34.9,22.4 35,22.4 35.2,22.4 35.3,22.4 35.5,22.4 35.6,22.4 35.8,22.4 
		35.8,22.4 35.8,22.3 35.8,22.3 	"/>
	<polygon class="st2" points="37.5,24 37.5,24 37.5,23.8 37.5,23.6 37.5,23.4 37.4,23.3 37.3,23.1 37.2,23 37.1,22.9 37,22.8 
		36.9,22.7 36.7,22.6 36.6,22.5 36.4,22.4 36.2,22.4 36.1,22.4 35.9,22.3 35.8,22.3 35.8,22.4 35.9,22.4 36.1,22.4 36.2,22.5 
		36.4,22.5 36.5,22.6 36.7,22.6 36.8,22.7 37,22.8 37.1,22.9 37.2,23 37.3,23.1 37.3,23.3 37.4,23.4 37.4,23.6 37.4,23.8 37.4,24 
		37.4,24 37.5,24 37.5,24 	"/>
	<polygon class="st2" points="37,26.5 37,26.5 37.5,24 37.4,24 36.9,26.5 36.9,26.5 37,26.5 37,26.5 	"/>
	<polygon class="st0" points="35.8,25.3 35.7,25.2 35.7,25.2 35.7,25.2 35.6,25.2 35.6,25.2 35.5,25.2 35.5,25.2 35.4,25.2 
		35.3,25.2 35.2,25.2 35.2,25.2 35.1,25.2 35,25.2 34.9,25.2 34.9,25.3 34.8,25.3 34.8,25.3 34.8,25.3 34.7,25.3 34.7,25.3 
		34.6,25.3 34.5,25.4 34.5,25.4 34.4,25.5 34.3,25.5 34.3,25.6 34.2,25.6 34.2,25.7 34.1,25.7 34.1,25.8 34.1,25.9 34.1,26 34,26.1 
		34.1,26.3 34.1,26.4 34.2,26.4 34.2,26.5 34.3,26.5 34.4,26.5 34.5,26.5 34.6,26.5 34.8,26.5 34.9,26.5 35,26.5 35.1,26.4 
		35.2,26.4 35.3,26.3 35.4,26.3 35.4,26.2 35.5,26.1 35.5,26.1 35.6,26 35.6,26 35.6,25.9 35.7,25.9 35.7,25.8 35.7,25.7 35.7,25.5 
		35.7,25.4 35.8,25.3 35.8,25.3 	"/>
	<polygon class="st2" points="45.7,26.9 45.7,26.8 45.8,26.7 45.9,26.6 45.9,26.5 46,26.4 46.2,26.3 46.3,26.3 46.4,26.3 46.6,26.3 
		46.7,26.3 46.8,26.4 46.9,26.5 47,26.6 47,26.7 47.1,26.8 47.1,26.9 46.9,26.9 46.9,26.9 46.9,26.7 46.9,26.7 46.8,26.6 46.7,26.5 
		46.6,26.5 46.5,26.4 46.4,26.4 46.3,26.4 46.2,26.5 46.1,26.5 46,26.6 46,26.7 45.9,26.7 45.9,26.9 45.9,26.9 45.7,26.9 45.7,26.9 
			"/>
	<polygon class="st2" points="46.2,26.9 46.2,26.7 46.4,26.7 46.5,26.7 46.6,26.7 46.6,26.7 46.6,26.7 46.6,26.7 46.7,26.8 
		46.7,26.8 46.7,26.8 46.7,26.9 46.7,26.9 46.7,26.9 46.6,26.9 46.4,26.9 46.5,26.9 46.5,26.9 46.5,26.9 46.5,26.9 46.6,26.9 
		46.6,26.9 46.6,26.9 46.6,26.8 46.6,26.8 46.6,26.8 46.6,26.8 46.5,26.8 46.5,26.8 46.5,26.8 46.5,26.8 46.4,26.8 46.3,26.8 
		46.3,26.9 46.2,26.9 46.2,26.9 	"/>
	<polygon class="st2" points="45.7,26.9 45.7,27 45.7,27.1 45.8,27.2 45.9,27.4 45.9,27.5 46,27.5 46.2,27.6 46.3,27.6 46.4,27.7 
		46.6,27.6 46.7,27.6 46.8,27.5 46.9,27.5 47,27.4 47,27.2 47.1,27.1 47.1,27 47.1,26.9 46.9,26.9 47,27 46.9,27.1 46.9,27.2 
		46.9,27.3 46.8,27.4 46.7,27.4 46.6,27.5 46.5,27.5 46.4,27.5 46.3,27.5 46.2,27.5 46.1,27.4 46,27.4 46,27.3 45.9,27.2 45.9,27.1 
		45.9,27 45.9,26.9 45.7,26.9 45.7,26.9 	"/>
	<polygon class="st2" points="46.2,26.9 46.2,27.2 46.3,27.2 46.3,27 46.4,27 46.6,27.2 46.7,27.2 46.5,27 46.5,27 46.6,27 46.6,27 
		46.6,27 46.6,26.9 46.4,26.9 46.4,26.9 46.3,26.9 46.3,26.9 46.2,26.9 46.2,26.9 	"/>
	<path class="st3" d="M45.7,27L45.7,27l0-0.1l0-0.1l0.1-0.1l0.1-0.1l0.1-0.1l0.1-0.1l0.1,0l0.1,0l0,0l0.1,0l0.1,0l0.1,0.1l0.1,0.1
		l0.1,0.1l0.1,0.1l0,0.1l0,0.1l0,0l0,0.1l0,0.1L47,27.4l-0.1,0.1l-0.1,0.1l-0.1,0.1l-0.1,0l-0.1,0l0,0l-0.1,0l-0.1,0L46,27.5
		l-0.1-0.1l-0.1-0.1l-0.1-0.1l0-0.1L45.7,27 M46.3,27.2h-0.1v-0.6h0.3l0,0l0.1,0l0.1,0l0,0l0,0l0,0l0,0l0,0l0,0l0,0l0,0l0,0l0,0l0,0
		l0,0l0,0l0,0h0l0.1,0.2h-0.1L46.4,27h-0.1V27.2 M46.4,26.9L46.4,26.9L46.4,26.9L46.4,26.9l0.1,0l0,0l0,0l0,0l0,0v0l0,0l0,0l0,0l0,0
		l0,0l0,0l0,0h0h0h-0.1v0.2H46.4 M46.4,27.5L46.4,27.5l0.1,0l0.1,0l0.1-0.1l0.1-0.1l0.1-0.1l0-0.1l0-0.1l0-0.1l0,0l0-0.1l0-0.1
		l0-0.1l-0.1-0.1l-0.1-0.1l-0.1,0l-0.1,0l-0.1,0l0,0l-0.1,0l-0.1,0l-0.1,0L46,26.6L46,26.7l0,0.1l0,0.1l0,0.1l0,0l0,0.1l0,0.1l0,0.1
		l0.1,0.1l0.1,0.1l0.1,0.1l0.1,0L46.4,27.5"/>
	<polygon class="st2" points="37.3,27.6 38.7,27.6 38.7,27.6 39.1,24.9 39.2,24.7 39.2,24.6 39.2,24.5 39.3,24.4 39.3,24.3 
		39.4,24.2 39.4,24.1 39.5,24 39.6,23.9 39.7,23.9 39.8,23.8 39.9,23.7 40.1,23.7 40.2,23.6 40.4,23.6 40.6,23.6 40.7,23.6 
		40.7,23.6 40.7,23.6 40.7,23.6 40.9,22.4 40.8,22.4 40.7,22.4 40.5,22.4 40.4,22.4 40.3,22.5 40.2,22.5 40.1,22.6 40,22.6 
		39.9,22.7 39.9,22.8 39.8,22.9 39.7,22.9 39.6,23 39.6,23.1 39.5,23.2 39.4,23.3 39.6,22.4 38.2,22.4 37.3,27.6 37.3,27.6 
		37.3,27.6 	"/>
	<polyline class="st3" points="37.3,27.6 38.7,27.6 38.7,27.6 39.1,24.9 39.1,24.9 39.2,24.7 39.2,24.6 39.2,24.5 39.3,24.4 
		39.3,24.3 39.4,24.2 39.4,24.1 39.5,24 39.6,23.9 39.7,23.9 39.8,23.8 39.9,23.7 40.1,23.7 40.2,23.6 40.4,23.6 40.6,23.6 
		40.6,23.6 40.7,23.6 40.7,23.6 40.7,23.6 40.7,23.6 40.9,22.4 40.9,22.4 40.8,22.4 40.7,22.4 40.5,22.4 40.4,22.4 40.3,22.5 
		40.2,22.5 40.1,22.6 40,22.6 39.9,22.7 39.9,22.8 39.8,22.9 39.7,22.9 39.6,23 39.6,23.1 39.5,23.2 39.4,23.3 39.6,22.4 38.2,22.4 
		37.3,27.6 37.3,27.6 	"/>
	<polygon class="st2" points="24.5,27.6 25.8,27.6 25.9,27.6 26.3,24.9 26.3,24.7 26.4,24.6 26.4,24.5 26.4,24.4 26.5,24.3 
		26.5,24.3 26.6,24.2 26.6,24.1 26.7,24 26.8,23.9 26.9,23.9 27,23.8 27.2,23.8 27.3,23.7 27.5,23.7 27.7,23.7 27.7,23.7 27.7,23.7 
		27.7,23.7 27.7,23.7 27.8,23.7 27.8,23.7 27.8,23.7 27.8,23.7 27.8,23.7 27.8,23.7 27.8,23.6 27.9,23.5 27.9,23.3 27.9,23.2 
		28,23.1 28,22.9 28.1,22.8 28.1,22.7 28.2,22.7 28.2,22.6 28.2,22.5 28.3,22.4 28.3,22.4 28.3,22.4 28.3,22.4 28.3,22.4 28.3,22.4 
		28.2,22.4 28.2,22.4 28.2,22.4 28.1,22.4 28.1,22.4 27.9,22.4 27.8,22.4 27.7,22.4 27.6,22.4 27.5,22.5 27.4,22.5 27.3,22.6 
		27.2,22.6 27.1,22.7 27,22.8 26.9,22.8 26.9,22.9 26.8,23 26.7,23.1 26.7,23.2 26.6,23.3 26.8,22.4 25.4,22.4 24.5,27.6 24.5,27.6 
		24.5,27.6 	"/>
	<polyline class="st3" points="24.5,27.6 25.8,27.6 25.9,27.6 26.3,24.9 26.3,24.9 26.3,24.7 26.4,24.6 26.4,24.5 26.4,24.4 
		26.5,24.3 26.5,24.3 26.6,24.2 26.6,24.1 26.7,24 26.8,23.9 26.9,23.9 27,23.8 27.2,23.8 27.3,23.7 27.5,23.7 27.7,23.7 27.7,23.7 
		27.7,23.7 27.7,23.7 27.7,23.7 27.7,23.7 27.8,23.7 27.8,23.7 27.8,23.7 27.8,23.7 27.8,23.7 27.8,23.7 27.8,23.7 27.8,23.6 
		27.9,23.5 27.9,23.3 27.9,23.2 28,23.1 28,22.9 28,22.9 28.1,22.8 28.1,22.7 28.2,22.7 28.2,22.6 28.2,22.5 28.3,22.4 28.3,22.4 
		28.3,22.4 28.3,22.4 28.3,22.4 28.3,22.4 28.3,22.4 28.2,22.4 28.2,22.4 28.2,22.4 28.1,22.4 28.1,22.4 28.1,22.4 27.9,22.4 
		27.8,22.4 27.7,22.4 27.6,22.4 27.5,22.5 27.4,22.5 27.3,22.6 27.2,22.6 27.1,22.7 27,22.8 26.9,22.8 26.9,22.9 26.8,23 26.7,23.1 
		26.7,23.2 26.6,23.3 26.8,22.4 25.4,22.4 24.5,27.6 24.5,27.6 	"/>
	<polygon class="st0" points="45.7,32.7 45.7,32.7 45.8,32.6 45.9,32.4 45.9,32.4 46,32.3 46.2,32.2 46.3,32.2 46.4,32.2 46.6,32.2 
		46.7,32.2 46.8,32.3 46.9,32.4 47,32.4 47,32.6 47.1,32.7 47.1,32.7 46.9,32.7 46.9,32.6 46.9,32.5 46.8,32.4 46.7,32.4 46.6,32.3 
		46.5,32.3 46.4,32.3 46.3,32.3 46.2,32.3 46.1,32.4 46,32.4 46,32.5 45.9,32.6 45.9,32.7 45.7,32.7 45.7,32.7 	"/>
	<polygon class="st0" points="46.2,32.7 46.2,32.5 46.4,32.5 46.5,32.5 46.6,32.5 46.6,32.6 46.6,32.6 46.6,32.6 46.7,32.6 
		46.7,32.7 46.7,32.7 46.6,32.7 46.6,32.7 46.6,32.7 46.6,32.6 46.6,32.6 46.5,32.6 46.5,32.6 46.5,32.6 46.5,32.6 46.4,32.6 
		46.3,32.6 46.3,32.7 46.2,32.7 46.2,32.7 	"/>
	<polygon class="st0" points="45.7,32.8 45.7,32.7 45.9,32.7 45.9,32.7 45.9,32.8 45.7,32.8 45.7,32.8 	"/>
	<polygon class="st0" points="46.2,32.8 46.2,32.7 46.3,32.7 46.3,32.8 46.4,32.8 46.5,32.8 46.5,32.8 46.5,32.8 46.5,32.8 
		46.6,32.8 46.6,32.7 46.6,32.7 46.6,32.7 46.7,32.7 46.7,32.7 46.7,32.7 46.7,32.8 46.7,32.8 46.6,32.8 46.2,32.8 46.2,32.8 	"/>
	<polygon class="st0" points="47,32.8 46.9,32.7 46.9,32.7 47.1,32.7 47.1,32.8 47,32.8 47,32.8 	"/>
	<polygon class="st0" points="45.7,32.8 45.7,32.8 45.7,33 45.8,33.1 45.9,33.2 45.9,33.3 46,33.4 46.2,33.5 46.3,33.5 46.4,33.5 
		46.6,33.5 46.7,33.5 46.8,33.4 46.9,33.3 47,33.2 47,33.1 47.1,33 47.1,32.8 47.1,32.8 47,32.8 47,32.8 46.9,32.9 46.9,33 
		46.9,33.1 46.8,33.2 46.7,33.3 46.6,33.3 46.5,33.4 46.4,33.4 46.3,33.4 46.2,33.3 46.1,33.3 46,33.2 46,33.1 45.9,33 45.9,32.9 
		45.9,32.8 45.9,32.8 45.7,32.8 45.7,32.8 	"/>
	<polygon class="st0" points="46.2,32.8 46.2,33.1 46.3,33.1 46.3,32.9 46.4,32.9 46.6,33.1 46.7,33.1 46.5,32.9 46.5,32.9 
		46.6,32.8 46.6,32.8 46.6,32.8 46.6,32.8 46.2,32.8 46.2,32.8 	"/>
	<path class="st2" d="M24.6,24l0-0.3l-0.1-0.3l-0.1-0.2L24.3,23l-0.1-0.2L24,22.7l-0.2-0.1l-0.2-0.1l-0.2-0.1l-0.2,0l-0.2,0l-0.2,0
		l-0.2,0l-0.4,0l-0.3,0.1l-0.3,0.1l-0.3,0.1l-0.2,0.1l-0.2,0.2l-0.2,0.2l-0.2,0.2l-0.1,0.2l-0.1,0.2l-0.1,0.2l-0.1,0.2L20,24.3
		l0,0.2l0,0.2l0,0.2l0,0.4l0,0.4l0.1,0.3l0.1,0.3l0.1,0.3l0.1,0.2l0.2,0.2l0.2,0.2l0.2,0.1l0.2,0.1l0.2,0.1l0.2,0.1l0.2,0.1l0.2,0
		l0.2,0l0.2,0h0.2l0.2,0H23l0.1,0l0.1,0l0.1,0l0.1,0l0.1,0l0.1,0l0.1,0l0.1,0l0.1,0l0.1,0l0.1,0l0.1,0l0.1,0l0.2-1.2l-0.1,0.1
		L24,26.3l-0.1,0.1l-0.1,0.1l-0.1,0l-0.1,0l-0.1,0l-0.1,0l-0.1,0l-0.1,0h-0.1l-0.1,0l-0.1,0l-0.1,0l-0.1,0l-0.1,0l-0.1,0l-0.1,0
		l-0.1,0l-0.1-0.1l-0.1-0.1l-0.1-0.1l-0.1-0.1L21.5,26L21.5,26l-0.1-0.1l0-0.1l0-0.1l0-0.1l0-0.1l0-0.1l0-0.1h3.1l0-0.3l0.1-0.4
		l0-0.4L24.6,24z M23.3,24.4h-1.8l0,0l0,0l0-0.1l0-0.1l0-0.1l0-0.1l0-0.1l0-0.1l0.1-0.1l0.1-0.1l0.1-0.1l0.1-0.1l0.1-0.1l0.1,0
		l0.1,0l0.1,0l0.1,0l0.1,0l0.1,0l0.1,0l0.1,0l0.1,0l0.1,0l0.1,0l0.1,0l0.1,0l0.1,0.1l0,0.1l0,0.1l0,0.1l0,0.1l0,0.1l0,0.1l0,0.1
		L23.3,24.4z"/>
</g>
</svg>
