<?xml version="1.0" encoding="utf-8"?>
<!-- Generator: Adobe Illustrator 19.2.1, SVG Export Plug-In . SVG Version: 6.00 Build 0)  -->
<svg version="1.1" id="Слой_1" xmlns="http://www.w3.org/2000/svg" xmlns:xlink="http://www.w3.org/1999/xlink" x="0px" y="0px"
	 viewBox="0 0 48 48" style="enable-background:new 0 0 48 48;" xml:space="preserve">
<style type="text/css">
	.st0{fill:#E52334;}
	.st1{fill:#FFFFFF;}
</style>
<g>
	<circle class="st0" cx="24" cy="24" r="24"/>
	<path class="st1" d="M18.4,24.1c0,0,0.2,0.1,0,0.3c0,0-1.7,1.7-2.9,2.2c0,0-0.2,0.1-0.3,0c0,0-1.8-2-1.7-5.4c0,0-0.4-2.7,2.5-5.9
		c1.9-2.1,4.3-2.5,6.4-2.8c2.1-0.3,6.3-0.1,8.7,1.4c2.4,1.4,3.7,2.2,4.8,6.1c0,0,0.4,2.3-0.7,4.3c0,0-1.6,3.2-5.2,4.1
		c0,0-2.3,0.7-4.5,0c0,0,0.6,4.7-3.1,6c0,0-4,0.8-4.4-1.5l0.1-2.2c0,0-0.1-0.4,0.3-0.2c0,0,2.5,1.7,2.7-0.8
		c0.2-2.5-0.1-10.7-0.1-10.7s-0.1-0.4,0.3-0.4c0,0,2.1-0.3,3.6,0c0,0,0.3,0,0.3,0.5l0,5.6c0,0-0.1,0.4,0.5,0.6c0,0,2.5,0.9,4.3-0.4
		c0,0,1.9-1.3,1.7-4.1c0,0-0.9-3.4-4.5-4.4c0,0-3.8-1.3-7,0.9c0,0-2.4,1.5-2.6,3.9C17.4,21.1,17,22.4,18.4,24.1z"/>
</g>
</svg>
