<?xml version="1.0" encoding="utf-8"?>
<!-- Generator: Adobe Illustrator 19.2.1, SVG Export Plug-In . SVG Version: 6.00 Build 0)  -->
<svg version="1.1" id="Слой_1" xmlns="http://www.w3.org/2000/svg" xmlns:xlink="http://www.w3.org/1999/xlink" x="0px" y="0px"
	 viewBox="0 0 48 48" style="enable-background:new 0 0 48 48;" xml:space="preserve">
<style type="text/css">
	.st0{fill:#336699;}
	.st1{fill:#003366;}
</style>
<g>
	<path class="st0" d="M39.4,20.3c-0.5-0.3-1.3-0.4-2.4-0.4c-0.5,0-1.1,0-1.6,0.1c-0.4,0.1-0.4,0.1-0.7,0.1c-0.5,0.1-0.6,0.6-0.6,0.6
		L34,21.4c-0.1,0.4,0.2,0.4,0.3,0.4c0.2-0.1,0.3-0.1,0.8-0.2c0.4-0.1,0.9-0.2,1.3-0.2c0.5,0,0.9,0.1,1.2,0.2
		c0.3,0.1,0.4,0.3,0.4,0.6c0,0.1,0,0.1,0,0.2c0,0.1-0.1,0.1-0.2,0.1c-0.8,0-1.3,0.1-2,0.2c-0.6,0.1-1.2,0.2-1.7,0.5
		c-0.5,0.2-0.9,0.5-1.1,0.9c-0.3,0.4-0.4,0.8-0.4,1.4c0,0.5,0.2,0.9,0.5,1.3c0.4,0.3,0.8,0.5,1.4,0.5c0.4,0,0.6,0,0.8-0.1
		c0.2,0,0.4-0.1,0.6-0.2c0.2-0.1,0.4-0.2,0.5-0.3c0.2-0.1,0.3-0.2,0.5-0.3l0,0l0,0.2c0,0,0,0,0,0l0,0c-0.1,0.3,0.1,0.5,0.4,0.5l0,0
		h0l0,0c0.2,0,0.8,0,1,0h0.2c0,0,0,0,0,0c0.3,0,0.5-0.2,0.6-0.5l1-4.2c0-0.1,0-0.2,0-0.3c0-0.1,0-0.2,0-0.3
		C40.2,21,39.9,20.6,39.4,20.3z M37.1,25.3c-0.2,0.1-0.3,0.2-0.5,0.3c-0.2,0.1-0.5,0.2-0.7,0.2c-0.3,0-0.6,0-0.8-0.1
		c-0.2-0.1-0.3-0.3-0.3-0.5c0-0.3,0.1-0.5,0.2-0.7c0.1-0.2,0.3-0.3,0.6-0.4c0.2-0.1,0.5-0.1,0.9-0.2c0.3,0,0.9-0.1,1-0.1
		c0.1,0,0.1,0,0.1,0.2c0,0.1-0.2,0.8-0.3,1.1C37.3,25.1,37.1,25.3,37.1,25.3z"/>
	<path class="st1" d="M22.7,20c-0.3,0-0.7,0.2-0.8,0.5c0,0-1.9,3.3-2.1,3.6c-0.1,0.2-0.2,0.1-0.2,0c0-0.1-0.6-3.6-0.6-3.6
		c-0.1-0.3-0.4-0.5-0.7-0.5L17,20c-0.3,0-0.5,0.2-0.4,0.5c0,0,0.9,5.2,1.1,6.4c0.1,0.7,0,0.8,0,0.8l-1.2,2.1
		c-0.2,0.3-0.1,0.5,0.2,0.5l1.4,0c0.3,0,0.7-0.2,0.8-0.5l5.3-9c0,0,0.5-0.8,0-0.8C24,20,22.7,20,22.7,20"/>
	<path class="st1" d="M5.9,21.8c-0.4,0.3-1,0.4-1.7,0.4H3.9c-0.3,0-0.5-0.2-0.4-0.5L3.9,20c0.1-0.3,0.3-0.5,0.6-0.5l0.4,0
		c0.5,0,0.9,0.1,1.2,0.3c0.3,0.2,0.4,0.4,0.4,0.8C6.5,21.1,6.3,21.5,5.9,21.8 M8.8,19.1c-0.2-0.3-0.4-0.6-0.7-0.8
		c-0.3-0.2-0.7-0.3-1.2-0.4c-0.4-0.1-1-0.1-1.6-0.1l-2.8,0c-0.3,0-0.6,0.2-0.6,0.5L0,26.5C-0.1,26.7,0.1,27,0.4,27h1.3
		c0.3,0,0.6-0.2,0.6-0.5l0.5-2C2.9,24.2,3.2,24,3.5,24h0.4c1.6,0,2.9-0.3,3.8-1C8.6,22.3,9,21.4,9,20.3C9,19.8,9,19.4,8.8,19.1"/>
	<path class="st0" d="M30.1,21.8c-0.4,0.3-1,0.4-1.7,0.4h-0.3c-0.3,0-0.5-0.2-0.4-0.5l0.4-1.7c0.1-0.3,0.4-0.5,0.6-0.5l0.4,0
		c0.5,0,0.9,0.1,1.2,0.3c0.3,0.2,0.4,0.4,0.4,0.8C30.7,21.1,30.5,21.5,30.1,21.8 M33,19.1c-0.2-0.3-0.4-0.6-0.7-0.8
		c-0.3-0.2-0.7-0.3-1.2-0.4c-0.4-0.1-1-0.1-1.6-0.1l-2.8,0c-0.3,0-0.6,0.2-0.6,0.5l-1.9,8.2c-0.1,0.3,0.1,0.5,0.4,0.5l1.3,0
		c0.3,0,0.6-0.2,0.6-0.5l0.5-2c0.1-0.3,0.4-0.5,0.6-0.5h0.4c1.6,0,2.9-0.3,3.8-1c0.9-0.7,1.4-1.6,1.4-2.6
		C33.2,19.9,33.2,19.5,33,19.1"/>
	<path class="st1" d="M15.2,20.3c-0.5-0.3-1.3-0.4-2.4-0.4c-0.5,0-1.1,0-1.6,0.1c-0.4,0.1-0.4,0.1-0.7,0.1c-0.5,0.1-0.6,0.6-0.6,0.6
		l-0.2,0.7c-0.1,0.4,0.2,0.4,0.3,0.4c0.2-0.1,0.3-0.1,0.8-0.2c0.4-0.1,0.9-0.2,1.3-0.2c0.5,0,0.9,0.1,1.2,0.2
		c0.3,0.1,0.4,0.3,0.4,0.6c0,0.1,0,0.1,0,0.2c0,0.1-0.1,0.1-0.2,0.1c-0.8,0-1.3,0.1-2,0.2c-0.7,0.1-1.2,0.2-1.7,0.5
		c-0.5,0.2-0.9,0.5-1.1,0.9c-0.3,0.4-0.4,0.8-0.4,1.4c0,0.5,0.2,0.9,0.5,1.3c0.4,0.3,0.8,0.5,1.4,0.5c0.4,0,0.6,0,0.8-0.1
		c0.2-0.1,0.4-0.1,0.6-0.2c0.2-0.1,0.4-0.2,0.5-0.3c0.2-0.1,0.3-0.2,0.5-0.3l0,0l0,0.2c0,0,0,0,0,0l0,0c-0.1,0.3,0.1,0.5,0.4,0.5
		l0,0h0l0,0c0.2,0,0.8,0,1,0h0.2c0,0,0,0,0,0c0.3,0,0.5-0.2,0.6-0.5l1-4.2c0-0.1,0-0.2,0-0.3c0-0.1,0-0.2,0-0.3
		C16,21,15.7,20.6,15.2,20.3z M12.8,25.3c-0.2,0.1-0.3,0.2-0.5,0.3c-0.2,0.1-0.5,0.2-0.7,0.2c-0.3,0-0.6,0-0.8-0.1
		c-0.2-0.1-0.3-0.3-0.3-0.5c0-0.3,0.1-0.5,0.2-0.7c0.1-0.2,0.3-0.3,0.6-0.4c0.2-0.1,0.5-0.1,0.9-0.2c0.3,0,0.9-0.1,1-0.1
		c0.1,0,0.1,0,0.1,0.2c0,0.1-0.2,0.8-0.3,1.1C13,25.1,12.9,25.3,12.8,25.3z"/>
	<g>
		<g>
			<path class="st0" d="M44,17.9h-1.2c0,0,0,0,0,0l0,0c-0.3,0-0.5,0.2-0.6,0.5c0,0,0,0,0,0c0,0,0,0.1-0.1,0.3l-1.6,7.4
				c0,0.2-0.1,0.3-0.1,0.3l0,0c-0.1,0.3,0.1,0.5,0.4,0.5l0,0h0H42h0c0.3,0,0.5-0.2,0.6-0.5c0,0,0,0,0,0l1.8-8.1l0,0
				C44.5,18.1,44.3,17.9,44,17.9z"/>
		</g>
	</g>
	<g>
		<path class="st0" d="M45.8,19.5c0,0-0.1,0-0.1,0c0,0-0.1,0-0.1,0c-0.1,0-0.2,0-0.3-0.1c-0.1-0.1-0.1-0.2-0.1-0.3v-0.7H45v-0.2h0.1
			v-0.4h0.2v0.4h0.5v0.2h-0.5V19c0,0.1,0,0.1,0,0.2c0,0,0,0.1,0,0.1c0,0,0,0.1,0.1,0.1c0,0,0.1,0,0.1,0c0,0,0.1,0,0.1,0
			c0,0,0.1,0,0.1,0h0V19.5z"/>
		<path class="st0" d="M48,19.5h-0.2v-0.7c0-0.1,0-0.1,0-0.2c0-0.1,0-0.1,0-0.1c0,0,0-0.1-0.1-0.1c0,0-0.1,0-0.1,0
			c-0.1,0-0.1,0-0.2,0c-0.1,0-0.1,0.1-0.2,0.1c0,0,0,0,0,0.1c0,0,0,0,0,0.1v0.8h-0.2v-0.7c0-0.1,0-0.1,0-0.2c0-0.1,0-0.1,0-0.1
			c0,0,0-0.1-0.1-0.1c0,0-0.1,0-0.1,0c-0.1,0-0.1,0-0.2,0c-0.1,0-0.1,0.1-0.2,0.1v1h-0.2v-1.3h0.2v0.1c0.1-0.1,0.1-0.1,0.2-0.1
			c0.1,0,0.1,0,0.2,0c0.1,0,0.2,0,0.2,0.1c0.1,0,0.1,0.1,0.1,0.2c0.1-0.1,0.2-0.1,0.2-0.2c0.1,0,0.2,0,0.2,0c0.1,0,0.2,0,0.3,0.1
			c0.1,0.1,0.1,0.2,0.1,0.4V19.5z"/>
	</g>
</g>
</svg>
