<?xml version="1.0" encoding="utf-8"?>
<!-- Generator: Adobe Illustrator 19.2.1, SVG Export Plug-In . SVG Version: 6.00 Build 0)  -->
<svg version="1.1" id="Слой_1" xmlns="http://www.w3.org/2000/svg" xmlns:xlink="http://www.w3.org/1999/xlink" x="0px" y="0px"
	 viewBox="0 0 48 48" style="enable-background:new 0 0 48 48;" xml:space="preserve">
<style type="text/css">
	.st0{fill:#F38B00;}
	.st1{fill:#0078BF;}
</style>
<path class="st0" d="M-71.4,20.7c-1.2-0.5-1.4,1-1,2c0.7,2.2,1.6,4,2.3,4.3c0.7,0.4,1.4-0.5,0.9-2.8C-69.4,23.2-70.1,21.1-71.4,20.7
	z"/>
<path class="st0" d="M-81.2,24.8C-81.2,24.8-81.3,24.8-81.2,24.8c-0.1,0-0.1,0-0.1-0.1c0,0-0.1,0-0.1,0c0,0-0.1,0-0.1,0
	c-0.1,0-0.1,0-0.2-0.1c-0.8-0.1-1.6,0-2.2,0.4c-1.5,1-1.7,3.3-0.5,5.1c0.6,0.8,1.3,1.4,2.1,1.7c0,0,0,0,0.1,0c0,0,0.1,0,0.1,0
	c0,0,0.1,0,0.1,0c0,0,0,0,0.1,0c0.1,0,0.1,0,0.2,0c0.8,0.2,1.6,0,2.2-0.4c1.5-1,1.7-3.3,0.5-5C-79.6,25.7-80.4,25.1-81.2,24.8z"/>
<g>
	<path class="st1" d="M47.8,19.4h-0.9c-0.2,0-0.2,0.1-0.2,0.2v6.6c0,0.2,0.1,0.2,0.2,0.2h0.9c0.1,0,0.2,0,0.2-0.2v-6.6
		C48,19.5,47.9,19.4,47.8,19.4z"/>
	<path class="st1" d="M34.9,19.4h-0.9c-0.2,0-0.2,0.1-0.2,0.2v6.6c0,0.2,0.1,0.2,0.2,0.2h0.9c0.1,0,0.2,0,0.2-0.2v-6.6
		C35.1,19.5,35,19.4,34.9,19.4z"/>
	<path class="st1" d="M31.9,28.1c-0.6-0.2-1.8-0.6-2.1-1.7c1.8-0.7,2.2-2.4,2.2-3.5c0-2.1-1.3-3.6-3.1-3.6c-1.7,0-3.2,1.2-3.2,3.7
		c0,1.6,0.7,3.3,2.7,3.6c0.8,1.9,3.4,2.2,3.6,2.2c0.3,0,0.3-0.2,0.3-0.3C32.3,28.2,32.1,28.2,31.9,28.1z M28.8,25.7
		c-0.1,0-0.8,0-1.3-0.8c-0.4-0.6-0.4-1.4-0.4-2c0-0.7,0.1-1.5,0.4-2c0.3-0.5,0.8-0.8,1.3-0.8c0.2,0,0.8,0.1,1.3,0.8
		c0.4,0.6,0.5,1.5,0.5,2c0,0.6,0,1.4-0.4,2C29.8,25.5,29.3,25.7,28.8,25.7z"/>
	<path class="st1" d="M44.8,19.4h-0.7c-0.1,0-0.2,0-0.2,0.2l-1.1,4.5l-1.4-4.5c-0.1-0.2-0.1-0.2-0.1-0.2h-0.4
		c-0.1,0-0.1,0.1-0.2,0.2l-1.4,4.5l-1.1-4.5c0-0.2-0.1-0.2-0.3-0.2h-0.9c-0.1,0-0.2,0-0.2,0.1c0,0,0,0,0,0.2l1.9,6.5
		c0,0.2,0.1,0.2,0.3,0.2c0.1,0,0.4,0,0.4,0c0.1,0,0.1,0,0.2-0.2l1.3-4.2l1.4,4.2c0,0.1,0.1,0.2,0.2,0.2h0.5c0.1,0,0.2,0,0.2-0.2
		l1.8-6.5c0-0.1,0-0.1,0-0.2C45,19.4,44.9,19.4,44.8,19.4z"/>
	<path class="st0" d="M22,34.9c-0.6-1.3-1.8-2.2-3-3c-0.4-0.3-0.9-0.4-1.3-0.6c-1-0.3-1.9-0.4-2.9-0.6c-0.9-0.1-1.6-0.5-2.3-1
		c-0.4-0.3-0.7-0.6-1-1c0-0.1-0.3-0.4-0.3-0.5c0,0-0.2,0.7,0.2,1.7c-3.1-0.1-5.9-1.9-7.1-4C2,22.2,2.8,17.5,5.9,15.4
		c3.1-2.1,7.8-0.6,10.3,3.1c1.6,2.3,2,5.1,1.3,7.3c0,0,0,0,0,0.1c-1.3-1-2.6-0.5-2.6-0.5c1.3-0.1,2.4,0.9,2.4,0.9
		c0.2,0.1,0.3,0.3,0.4,0.5c0,0,0.1,0.1,0.1,0.1c0.4,0.5,0.6,1,0.7,1.5c2.7-3.4,3.1-8,0.7-11.7c-3-4.6-9.4-5.8-14.3-2.6
		c-4.9,3.2-6.4,9.5-3.4,14.1c2.5,3.8,8.2,5,11.6,3.9c1.3-0.4,5.5-0.8,8.5,2.8c0,0,0.3,0.3,0.4,0.6c0,0,0,0.1,0.2,0.1
		C22.2,35.6,22.3,35.5,22,34.9z"/>
</g>
</svg>
