<?xml version="1.0" encoding="utf-8"?>
<!-- Generator: Adobe Illustrator 19.2.1, SVG Export Plug-In . SVG Version: 6.00 Build 0)  -->
<svg version="1.1" id="Слой_1" xmlns="http://www.w3.org/2000/svg" xmlns:xlink="http://www.w3.org/1999/xlink" x="0px" y="0px"
	 viewBox="0 0 48 48" style="enable-background:new 0 0 48 48;" xml:space="preserve">
<style type="text/css">
	.st0{fill:#8274A3;}
</style>
<g>
	<path class="st0" d="M39,4.5c-11.3,6.2-10.5,0.4-15,0c-4.5,0.4-3.7,6.2-15,0C3.3,1.3,9.4,34.7,22.9,41.1c0.7,0.3,1.5,0.3,2.1,0
		C38.6,34.7,44.7,1.3,39,4.5z M24.9,38.3c-0.6,0.3-1.2,0.3-1.8,0C11.7,32.9,6.5,4.7,11.4,7.3c9.5,5.2,8.9,0.3,12.6,0
		c3.8,0.3,3.1,5.2,12.6,0C41.5,4.7,36.3,32.9,24.9,38.3z"/>
	<path class="st0" d="M11.7,8.1C9.2,6.8,9.4,14,11.9,21H24V8.1c0,0,0,0,0,0C20.3,8.4,21,12.9,11.7,8.1z"/>
	<path class="st0" d="M36.1,21H24v17c0,0,0.6-0.1,0.8-0.2C30,35.3,33.9,28,36.1,21z"/>
</g>
</svg>
