<?xml version="1.0" encoding="utf-8"?>
<!-- Generator: Adobe Illustrator 19.2.1, SVG Export Plug-In . SVG Version: 6.00 Build 0)  -->
<svg version="1.1" id="Слой_1" xmlns="http://www.w3.org/2000/svg" xmlns:xlink="http://www.w3.org/1999/xlink" x="0px" y="0px"
	 viewBox="0 0 48 48" style="enable-background:new 0 0 48 48;" xml:space="preserve">
<style type="text/css">
	.st0{fill:#008FB7;}
	.st1{fill:#FFFFFF;}
</style>
<g>
	<circle class="st0" cx="24" cy="24" r="24"/>
	<path class="st1" d="M16.1,26.6V14.9c0,0-0.3-3.6,2.9-3.6c0,0,2.9-0.2,2.9,2.3v3.6h9.5c0,0,2.4,0.6,2.2,3.3c0,0-0.3,2.4-2.8,2.6
		h-8.8v3.2c0,0-0.1,2.5,2.2,2.5h6.6c0,0,2.8,0.1,2.8,3.1c0,0-0.1,2.6-2.9,2.8h-6.4C24.2,34.7,16.1,34.2,16.1,26.6z"/>
</g>
</svg>
