<?xml version="1.0" encoding="utf-8"?>
<!-- Generator: Adobe Illustrator 19.2.1, SVG Export Plug-In . SVG Version: 6.00 Build 0)  -->
<svg version="1.1" id="Слой_1" xmlns="http://www.w3.org/2000/svg" xmlns:xlink="http://www.w3.org/1999/xlink" x="0px" y="0px"
	 viewBox="0 0 48 48" style="enable-background:new 0 0 48 48;" xml:space="preserve">
<style type="text/css">
	.st0{fill:#1AB6E9;}
	.st1{fill:#FFFFFF;}
</style>
<g>
	<circle class="st0" cx="24" cy="24" r="24"/>
	<path class="st1" d="M12.1,21.6L10.9,20c0,0,4.9-4.3,5.4-4.7c0,0,3-2.6,5,0.7c0,0,0.6,0.3,1.3,5.9c0,0,0.7,4.8,2,6.1
		c0,0,0.5,0.2,1.1-0.4c0,0,3.1-3.6,3.3-6.2c0,0,0.3-2.9-3.6-1.5c0,0,1.1-4.4,4.3-5.5c0,0,4.5-1.7,5.9,1.2c0,0,1.4,2.7-0.2,6.4
		c-1.6,3.7-7,11-9.6,12.5c0,0-3.7,2.8-5.9,0.2c0,0-1.5-1.7-2-4.3c0,0-2.2-10.8-4.2-10.1C13.9,20.4,12.2,21.3,12.1,21.6z"/>
</g>
</svg>
