<?xml version="1.0" encoding="utf-8"?>
<!-- Generator: Adobe Illustrator 19.2.1, SVG Export Plug-In . SVG Version: 6.00 Build 0)  -->
<svg version="1.1" id="Слой_1" xmlns="http://www.w3.org/2000/svg" xmlns:xlink="http://www.w3.org/1999/xlink" x="0px" y="0px"
	 viewBox="0 0 48 48" style="enable-background:new 0 0 48 48;" xml:space="preserve">
<style type="text/css">
	.st0{fill:#0066B2;}
	.st1{fill:#F9A533;}
</style>
<g>
	<g>
		<polygon class="st0" points="20.8,31.5 16.9,31.5 19.3,16.5 23.3,16.5 		"/>
		<path class="st0" d="M13.6,16.5L9.9,26.8l-0.4-2.2v0l-1.3-6.8c0,0-0.2-1.4-1.9-1.4H0.1L0,16.7c0,0,1.9,0.4,4.1,1.7l3.4,13.1h4.1
			l6.2-15H13.6z"/>
		<path class="st0" d="M44.4,31.5H48l-3.1-15h-3.1c-1.5,0-1.8,1.1-1.8,1.1l-5.8,13.9h4.1l0.8-2.2h5L44.4,31.5z M40.1,26.2l2.1-5.6
			l1.2,5.6H40.1z"/>
		<path class="st0" d="M34.4,20.1l0.6-3.2c0,0-1.7-0.7-3.5-0.7c-1.9,0-6.6,0.8-6.6,5c0,3.9,5.4,3.9,5.4,6c0,2-4.9,1.7-6.5,0.4
			l-0.6,3.4c0,0,1.7,0.9,4.4,0.9c2.7,0,6.7-1.4,6.7-5.1c0-3.9-5.5-4.3-5.5-6C28.9,19,32.7,19.2,34.4,20.1z"/>
	</g>
	<path class="st1" d="M9.4,24.6l-1.3-6.8c0,0-0.2-1.4-1.9-1.4H0.1L0,16.7c0,0,3,0.6,5.8,2.9C8.5,21.9,9.4,24.6,9.4,24.6z"/>
</g>
</svg>
