<?xml version="1.0" encoding="utf-8"?>
<!-- Generator: Adobe Illustrator 19.2.1, SVG Export Plug-In . SVG Version: 6.00 Build 0)  -->
<svg version="1.1" id="Слой_1" xmlns="http://www.w3.org/2000/svg" xmlns:xlink="http://www.w3.org/1999/xlink" x="0px" y="0px"
	 viewBox="0 0 48 48" style="enable-background:new 0 0 48 48;" xml:space="preserve">
<style type="text/css">
	.st0{fill:#E42026;}
	.st1{fill:#FFFFFF;}
	.st2{fill:#E41D2A;}
</style>
<g>
	<circle class="st0" cx="24" cy="24" r="24"/>
	<path class="st1" d="M12.1,33.4c0,0-0.4-8,0.3-9.5c0,0,0.5-2.2,2.4-2.7c0,0,8.2-1,19.3,0c0,0,2.2,0.4,2.5,2.8c0,0,0.9,6.6,0,11.1
		c0,0-0.3,2.3-2.9,2.6c0,0-10.6,0.8-18.4,0C15.2,37.8,12.2,37.8,12.1,33.4z"/>
	<g>
		<polygon class="st1" points="18.5,12.5 17.3,8.1 15.5,8.1 17.6,14.8 17.6,19.3 19.3,19.3 19.3,14.8 21.4,8.1 19.7,8.1 		"/>
		<path class="st1" d="M30,10.9v6.4c-1.3,1.3-1.3,0.3-1.3,0.3V11h-1.5l0,7.1c0,0.8,0.3,1.1,0.3,1.1c1.1,1.1,2.5-0.6,2.5-0.6v0.9h1.5
			v-8.4H30z"/>
		<path class="st1" d="M23.6,10.8c-2.3,0-2.2,2.3-2.2,2.3s0,2.2,0,4.3c0,2.1,2.2,2,2.2,2c2.3,0,2.2-2.2,2.2-2.2v-4.4
			C25.8,10.6,23.6,10.8,23.6,10.8z M24.2,17.2c0,0,0.1,0.8-0.6,0.8c0,0-0.7,0.2-0.7-0.8v-4.2c0,0,0-0.6,0.7-0.7c0,0,0.6,0,0.6,0.7
			V17.2z"/>
	</g>
	<g>
		<path class="st2" d="M18.9,26.6l1.5,0v6.9c0,0,0,1.1,1.3-0.3v-6.6h1.6v8.5h-1.6v-0.9c0,0-2.9,2.6-2.9-0.5
			C18.9,30.6,18.9,26.6,18.9,26.6z"/>
		<polygon class="st2" points="15.2,35.1 15.2,25.3 13.4,25.3 13.4,23.7 18.7,23.7 18.7,25.3 16.9,25.3 16.9,35.1 		"/>
		<path class="st2" d="M26.2,27.4v-3.6h-1.5v11.3l1.5,0v-0.9c2.8,2.3,2.9-0.7,2.9-0.7v-5.3C28.9,24.9,26.2,27.4,26.2,27.4z
			 M27.6,33.2c0,0-0.1,0.9-1.4,0.2v-5.1c0,0,1.4-1,1.4,0.4C27.6,30,27.6,33.2,27.6,33.2z"/>
		<path class="st2" d="M34.9,31.1v-2.4c0,0-0.1-2.2-2.2-2.2c0,0-2.3-0.1-2.3,2.3c0,2.4,0,4.2,0,4.2s0.1,2.1,2.5,2.1
			c0,0,2.1-0.1,2.1-1.9v-1.2h-1.5V33c0,0,0,0.8-0.7,0.8c0,0-0.8,0.1-0.8-0.9c0-1,0-1.7,0-1.7H34.9z M31.9,28.8c0,0,0-0.9,0.7-0.9
			c0.7,0,0.8,0.9,0.8,0.9v1h-1.5L31.9,28.8z"/>
	</g>
</g>
</svg>
